<?xml version="1.0" encoding="utf-8"?>
<!-- Generator: Adobe Illustrator 21.0.0, SVG Export Plug-In . SVG Version: 6.00 Build 0)  -->
<svg version="1.1" id="Layer_1" xmlns="http://www.w3.org/2000/svg" xmlns:xlink="http://www.w3.org/1999/xlink" x="0px" y="0px"
	 viewBox="0 0 89 90.5" style="enable-background:new 0 0 89 90.5;" xml:space="preserve">
<style type="text/css">
	.st0{fill:#FFFFFF;}
	.st1{enable-background:new    ;}
</style>
<g id="About" transform="translate(-80 -927.5)">
	<g id="Icon_feather-info" transform="translate(99 926)">
		<g id="Path_5">
			<path class="st0" d="M25.5,49.5c-13.2,0-24-10.8-24-24s10.8-24,24-24s24,10.8,24,24S38.7,49.5,25.5,49.5z M25.5,4.5
				c-11.6,0-21,9.4-21,21s9.4,21,21,21c11.6,0,21-9.4,21-21S37.1,4.5,25.5,4.5z"/>
		</g>
		<g id="Path_6">
			<path class="st0" d="M25.5,36.8c-0.8,0-1.5-0.7-1.5-1.5V24.1c0-0.8,0.7-1.5,1.5-1.5c0.8,0,1.5,0.7,1.5,1.5v11.2
				C27,36.2,26.3,36.8,25.5,36.8z"/>
		</g>
		<g id="Path_7">
			<path class="st0" d="M25.5,18c-0.1,0-0.2,0-0.3,0c-0.1,0-0.2,0-0.3-0.1c-0.1,0-0.2-0.1-0.3-0.1c-0.1-0.1-0.2-0.1-0.2-0.2
				c-0.3-0.3-0.4-0.7-0.4-1.1c0-0.4,0.2-0.8,0.4-1.1c0.1-0.1,0.1-0.1,0.2-0.2c0.1-0.1,0.2-0.1,0.3-0.1c0.1,0,0.2-0.1,0.3-0.1
				c0.5-0.1,1,0.1,1.3,0.4c0.3,0.3,0.4,0.7,0.4,1.1c0,0.4-0.2,0.8-0.4,1.1C26.3,17.8,25.9,18,25.5,18z"/>
		</g>
	</g>
	<g class="st1">
		<path class="st0" d="M91.1,1009.1H83l-1.8,3.9h-1.1l6.4-14h1l6.4,14h-1.1L91.1,1009.1z M90.7,1008.2l-3.7-8.1l-3.7,8.1H90.7z"/>
		<path class="st0" d="M111.1,1007c0.5,0.6,0.8,1.4,0.8,2.3c0,1.2-0.4,2.1-1.3,2.7s-2.2,1-3.9,1h-6.2v-14h5.8c1.5,0,2.7,0.3,3.6,0.9
			c0.8,0.6,1.3,1.5,1.3,2.7c0,0.8-0.2,1.5-0.6,2c-0.4,0.5-1,0.9-1.7,1.2C109.9,1006,110.6,1006.4,111.1,1007z M101.6,999.9v5.6h4.8
			c1.2,0,2.2-0.2,2.8-0.7c0.7-0.5,1-1.2,1-2.1c0-0.9-0.3-1.6-1-2.1c-0.7-0.5-1.6-0.7-2.8-0.7H101.6z M109.9,1011.4
			c0.7-0.5,1-1.2,1-2.2c0-1-0.3-1.7-1-2.2s-1.7-0.7-3.1-0.7h-5.2v5.8h5.2C108.1,1012.1,109.2,1011.9,109.9,1011.4z"/>
		<path class="st0" d="M121.8,1012.2c-1.1-0.6-2-1.5-2.6-2.5s-0.9-2.3-0.9-3.6s0.3-2.5,0.9-3.6s1.5-1.9,2.6-2.5
			c1.1-0.6,2.3-0.9,3.7-0.9c1.4,0,2.6,0.3,3.7,0.9c1.1,0.6,2,1.5,2.6,2.5s1,2.3,1,3.6s-0.3,2.6-1,3.6s-1.5,1.9-2.6,2.5
			c-1.1,0.6-2.3,0.9-3.7,0.9C124.1,1013.1,122.9,1012.8,121.8,1012.2z M128.7,1011.4c0.9-0.5,1.7-1.3,2.2-2.2c0.5-0.9,0.8-2,0.8-3.2
			s-0.3-2.2-0.8-3.2c-0.5-0.9-1.3-1.7-2.2-2.2c-0.9-0.5-2-0.8-3.2-0.8c-1.2,0-2.2,0.3-3.2,0.8c-1,0.5-1.7,1.3-2.3,2.2
			c-0.5,0.9-0.8,2-0.8,3.2s0.3,2.2,0.8,3.2c0.5,0.9,1.3,1.7,2.3,2.2c1,0.5,2,0.8,3.2,0.8C126.7,1012.2,127.8,1011.9,128.7,1011.4z"
			/>
		<path class="st0" d="M141.7,1011.6c-1-1-1.5-2.5-1.5-4.5V999h1v8c0,1.7,0.4,3,1.2,3.9c0.8,0.9,1.9,1.3,3.4,1.3
			c1.5,0,2.6-0.4,3.4-1.3c0.8-0.9,1.2-2.1,1.2-3.9v-8h1v8.1c0,2-0.5,3.5-1.5,4.5c-1,1-2.4,1.5-4.1,1.5S142.7,1012.6,141.7,1011.6z"
			/>
		<path class="st0" d="M162.6,999.9h-5V999h11.1v0.9h-5v13.1h-1V999.9z"/>
	</g>
</g>
</svg>
