<svg xmlns="http://www.w3.org/2000/svg" width="48" height="48" viewBox="0 0 48 48">
  <defs>
    <style>
      .cls-1 {
        fill: none;
        stroke: #fff;
        stroke-width: 3px;
      }
    </style>
  </defs>
  <path id="account" class="cls-1" d="M25.5,3A22.5,22.5,0,1,0,48,25.5,22.508,22.508,0,0,0,25.5,3Zm0,6.75a6.75,6.75,0,1,1-6.75,6.75A6.741,6.741,0,0,1,25.5,9.75Zm0,31.95A16.2,16.2,0,0,1,12,34.455c.068-4.478,9-6.93,13.5-6.93,4.478,0,13.433,2.453,13.5,6.93A16.2,16.2,0,0,1,25.5,41.7Z" transform="translate(-1.5 -1.5)"/>
</svg>
