<svg xmlns="http://www.w3.org/2000/svg" width="143.625" height="170.915" viewBox="0 0 143.625 170.915">
  <defs>
    <style>
      .cls-1 {
        fill: #a2a5fc;
      }
    </style>
  </defs>
  <path id="apple" class="cls-1" d="M120.363,92.569c-.076-14,6.258-24.573,19.079-32.358-7.174-10.264-18.01-15.912-32.319-17.018-13.546-1.068-28.351,7.9-33.769,7.9-5.724,0-18.85-7.517-29.152-7.517C22.909,43.918.281,60.555.281,94.4a95.1,95.1,0,0,0,5.495,30.984c4.884,14,22.513,48.346,40.9,47.773,9.616-.229,16.408-6.83,28.923-6.83,12.134,0,18.43,6.83,29.152,6.83,18.545-.267,34.494-31.48,39.15-45.522-24.879-11.714-23.543-34.342-23.543-35.067Zm-21.6-62.655c10.417-12.363,9.463-23.62,9.158-27.664-9.2.534-19.842,6.258-25.909,13.317C75.337,23.122,71.407,32.471,72.246,43c9.959.763,19.041-4.35,26.52-13.088Z" transform="translate(-0.281 -2.25)"/>
</svg>
