<svg xmlns="http://www.w3.org/2000/svg" width="339.469" height="101.417" viewBox="0 0 339.469 101.417">
  <defs>
    <style>
      .cls-1 {
        fill: #a2a5fc;
      }
    </style>
  </defs>
  <path id="fedex" class="cls-1" d="M310.827,77.057,339.1,45.285H306L294.49,58.44,282.555,45.285H219.594V36.8h29.757V11.285h-80.2V51.332h-.265c-5.092-5.835-11.4-7.85-18.777-7.85-15.064,0-26.415,10.29-30.393,23.816-9.548-31.507-51.663-30.552-64.658-7.426V47.036H25.991v-13.9H57.816v-21.8H0v97.81H25.991V68.04H51.928a37.9,37.9,0,0,0-1.22,9.654c0,38.774,54.421,48.48,69.061,12.571H97.491c-7.8,11.086-24.293,4.721-24.293-7.744h45.351C120.512,98.7,133.083,112.7,150.427,112.7a22.2,22.2,0,0,0,18.512-9.866h.265v6.312H281.76l11.722-13.261,11.828,13.261h34.159Zm-236.939-8.8c3.236-13.95,22.119-13.579,24.665,0ZM155.254,94.19c-18.353,0-18.034-33.31,0-33.31C172.546,60.88,173.554,94.19,155.254,94.19Zm89,10.131H194.187V16.006h50.39V32.025H214.82V50.006h29.438v14.9H214.5v23.71h29.757v15.7ZM219.912,83.21V70.268h29.757V46.929l26.892,30.234L249.669,107.4V83.21Zm73.516,5.463-13.844,15.647H259.376l24.187-27.158L259.376,50.006h21.058l14.109,15.541,13.579-15.541h20.421L304.462,77.057l24.4,27.264H307.379l-13.95-15.647Z" transform="translate(0 -11.285)"/>
</svg>
