<?xml version="1.0" encoding="utf-8"?>
<!-- Generator: Adobe Illustrator 21.0.0, SVG Export Plug-In . SVG Version: 6.00 Build 0)  -->
<svg version="1.1" id="Layer_1" xmlns="http://www.w3.org/2000/svg" xmlns:xlink="http://www.w3.org/1999/xlink" x="0px" y="0px"
	 viewBox="0 0 426 154" style="enable-background:new 0 0 426 154;" xml:space="preserve">
<style type="text/css">
	.st0{enable-background:new    ;}
	.st1{fill:#F99746;}
	.st2{fill:#A2A5FC;}
</style>
<g id="Group_41" transform="translate(-234 -30)">
	<g class="st0">
		<path class="st1" d="M244.6,112.4c2.9,3.3,5.7,5.7,8.4,7.2c2.8,1.6,5.5,2.4,8.2,2.4c2.5,0,4.6-0.7,6.3-2.1
			c1.7-1.4,2.5-3.1,2.5-5.2c0-2.3-0.7-4.1-2.1-5.4c-1.5-1.2-4.7-2.5-9.7-3.9c-6.8-1.8-11.6-4.2-14.5-7.2c-2.9-3-4.3-7.1-4.3-12.3
			c0-6.7,2.2-12.2,6.7-16.4c4.4-4.2,10.2-6.4,17.4-6.4c4,0,7.7,0.5,11,1.6c3.5,1.1,6.7,2.6,9.8,4.7l-6,13.7
			c-2.1-1.8-4.3-3.2-6.7-4.2c-2.3-0.9-4.5-1.4-6.7-1.4c-2.2,0-4.1,0.6-5.6,1.7c-1.4,1.1-2.2,2.5-2.2,4.2c0,1.7,0.6,3.1,1.9,4.2
			c1.3,1.1,3.8,2.1,7.4,3c0.1,0,0.2,0.1,0.3,0.1c0.1,0,0.2,0.1,0.4,0.1c7.8,2.1,12.9,4.4,15.4,7c1.6,1.6,2.9,3.7,3.8,6.2
			c0.8,2.4,1.2,5,1.2,8c0,7.4-2.4,13.4-7.3,17.9c-4.9,4.5-11.4,6.7-19.5,6.7c-5,0-9.4-0.8-13.3-2.4c-3.9-1.6-7.8-4.2-11.6-7.8
			L244.6,112.4z"/>
		<path class="st1" d="M298.4,135V64.9h19.1v27.2H343V64.9h19.1V135H343v-28.5h-25.5V135H298.4z"/>
		<path class="st1" d="M377.5,135V64.9h19.3V135H377.5z"/>
		<path class="st1" d="M430,135h-17.9V64.9h20c7.8,0,13.3,0.4,16.5,1.1c3.2,0.8,5.9,2.1,8,3.9c2.6,2.1,4.5,4.8,5.9,7.9
			c1.4,3.2,2.1,6.8,2.1,10.8c0,4.2-0.7,7.9-2.1,11c-1.2,3.2-3.2,5.8-5.9,7.8c-1.9,1.5-4.3,2.6-7,3.3c-2.5,0.7-6.7,1-12.8,1h-3.3H430
			V135z M430,96.5h3.6c4.5,0,7.7-0.7,9.6-2c1.8-1.2,2.7-3.3,2.7-6.4c0-2.9-0.9-5-2.7-6.2c-1.8-1.3-4.9-1.9-9.5-1.9H430V96.5z"/>
		<path class="st1" d="M492.2,135h-17.9V64.9h20c7.8,0,13.3,0.4,16.5,1.1c3.2,0.8,5.9,2.1,8,3.9c2.6,2.1,4.5,4.8,5.9,7.9
			c1.4,3.2,2.1,6.8,2.1,10.8c0,4.2-0.7,7.9-2.1,11c-1.2,3.2-3.2,5.8-5.9,7.8c-1.9,1.5-4.3,2.6-7,3.3c-2.5,0.7-6.7,1-12.8,1h-3.3
			h-3.4V135z M492.2,96.5h3.6c4.5,0,7.7-0.7,9.6-2c1.8-1.2,2.7-3.3,2.7-6.4c0-2.9-0.9-5-2.7-6.2c-1.8-1.3-4.9-1.9-9.5-1.9h-3.8V96.5
			z"/>
		<path class="st1" d="M536.4,135V64.9h42.9v15.4H555v12.1h22.9v15.1H555v11.8h24.3V135H536.4z"/>
		<path class="st1" d="M591.9,135V64.9h20c3.9,0,7.1,0.1,9.8,0.2c2.7,0.2,4.9,0.4,6.6,0.8c3,0.7,5.6,1.9,7.9,3.6
			c2.6,1.9,4.5,4.4,5.8,7.4c1.4,2.9,2.1,6.1,2.1,9.8c0,5.4-1.3,9.8-4,13.3c-2.6,3.4-6.5,5.7-11.6,6.7l19.1,28.2h-21.6l-16.1-27.4
			V135H591.9z M609.8,98.1h3.5c4.2,0,7.2-0.7,9-2.1c1.9-1.5,2.8-3.7,2.8-6.7c0-3.5-0.9-6-2.6-7.5c-1.8-1.5-4.8-2.2-8.9-2.2h-3.8
			V98.1z"/>
	</g>
	<g class="st0">
		<path class="st2" d="M242.1,176.5c-1.2-0.4-2.2-1-2.9-1.7l0.8-1.5c0.7,0.7,1.5,1.2,2.6,1.6c1.1,0.4,2.2,0.6,3.4,0.6
			c1.6,0,2.9-0.3,3.7-0.9c0.8-0.6,1.2-1.4,1.2-2.3c0-0.7-0.2-1.3-0.7-1.7c-0.4-0.4-1-0.8-1.6-1c-0.6-0.2-1.5-0.5-2.7-0.8
			c-1.4-0.3-2.5-0.7-3.3-1c-0.8-0.3-1.5-0.8-2.1-1.5c-0.6-0.7-0.9-1.6-0.9-2.7c0-0.9,0.2-1.8,0.7-2.5c0.5-0.8,1.2-1.4,2.2-1.8
			c1-0.5,2.3-0.7,3.7-0.7c1,0,2.1,0.1,3.1,0.4s1.9,0.7,2.6,1.2l-0.7,1.5c-0.8-0.5-1.6-0.9-2.4-1.1s-1.7-0.4-2.5-0.4
			c-1.6,0-2.8,0.3-3.6,0.9s-1.2,1.4-1.2,2.4c0,0.7,0.2,1.3,0.7,1.8c0.4,0.4,1,0.8,1.7,1c0.7,0.2,1.6,0.5,2.7,0.8
			c1.3,0.3,2.4,0.7,3.2,1c0.8,0.3,1.5,0.8,2.1,1.5c0.6,0.7,0.9,1.5,0.9,2.6c0,0.9-0.2,1.8-0.7,2.5c-0.5,0.8-1.3,1.4-2.3,1.8
			c-1,0.4-2.3,0.7-3.8,0.7C244.6,177.2,243.3,176.9,242.1,176.5z"/>
		<path class="st2" d="M277.4,158.8V177h-1.9v-8.4h-11.4v8.4h-1.9v-18.2h1.9v8.1h11.4v-8.1H277.4z"/>
		<path class="st2" d="M288.6,158.8h1.9V177h-1.9V158.8z"/>
		<path class="st2" d="M314,160.5c1.3,1.1,2,2.6,2,4.6s-0.7,3.5-2,4.6c-1.3,1.1-3.1,1.7-5.5,1.7h-4.9v5.7h-1.9v-18.2h6.8
			C310.9,158.8,312.7,159.4,314,160.5z M312.7,168.4c1-0.8,1.4-1.9,1.4-3.3c0-1.5-0.5-2.6-1.4-3.4c-1-0.8-2.3-1.2-4.1-1.2h-4.8v9.1
			h4.8C310.3,169.6,311.7,169.2,312.7,168.4z"/>
		<path class="st2" d="M337.7,160.5c1.3,1.1,2,2.6,2,4.6s-0.7,3.5-2,4.6c-1.3,1.1-3.1,1.7-5.5,1.7h-4.9v5.7h-1.9v-18.2h6.8
			C334.6,158.8,336.4,159.4,337.7,160.5z M336.4,168.4c1-0.8,1.4-1.9,1.4-3.3c0-1.5-0.5-2.6-1.4-3.4c-1-0.8-2.3-1.2-4.1-1.2h-4.8
			v9.1h4.8C334,169.6,335.4,169.2,336.4,168.4z"/>
		<path class="st2" d="M362,175.3v1.7h-12.9v-18.2h12.5v1.7h-10.6v6.5h9.4v1.6h-9.4v6.8H362z"/>
		<path class="st2" d="M384.2,177l-4.2-5.8c-0.5,0.1-1,0.1-1.5,0.1h-4.9v5.8h-1.9v-18.2h6.8c2.3,0,4.1,0.6,5.5,1.7s2,2.6,2,4.6
			c0,1.4-0.4,2.6-1.1,3.6c-0.7,1-1.7,1.7-3.1,2.1l4.4,6.2H384.2z M382.7,168.4c1-0.8,1.4-1.9,1.4-3.4c0-1.5-0.5-2.6-1.4-3.4
			c-1-0.8-2.3-1.2-4.1-1.2h-4.8v9.1h4.8C380.4,169.6,381.8,169.2,382.7,168.4z"/>
		<path class="st2" d="M411,176c-1.4-0.8-2.6-1.9-3.4-3.3c-0.8-1.4-1.2-3-1.2-4.7s0.4-3.3,1.2-4.7s2-2.5,3.4-3.3
			c1.5-0.8,3.1-1.2,4.9-1.2c1.4,0,2.6,0.2,3.7,0.7c1.1,0.5,2.1,1.1,2.9,2l-1.2,1.2c-1.4-1.4-3.2-2.2-5.4-2.2c-1.4,0-2.7,0.3-3.9,1
			c-1.2,0.7-2.1,1.6-2.8,2.7c-0.7,1.1-1,2.4-1,3.8c0,1.4,0.3,2.7,1,3.8c0.7,1.1,1.6,2,2.8,2.7c1.2,0.7,2.5,1,3.9,1
			c2.2,0,4-0.7,5.4-2.2l1.2,1.2c-0.8,0.9-1.8,1.5-2.9,2c-1.2,0.5-2.4,0.7-3.8,0.7C414.1,177.2,412.5,176.8,411,176z"/>
		<path class="st2" d="M434.6,175.9c-1.5-0.8-2.6-1.9-3.4-3.3s-1.2-3-1.2-4.7s0.4-3.3,1.2-4.7s2-2.5,3.4-3.3
			c1.5-0.8,3.1-1.2,4.9-1.2s3.4,0.4,4.9,1.2c1.4,0.8,2.6,1.9,3.4,3.3c0.8,1.4,1.2,3,1.2,4.7s-0.4,3.3-1.2,4.7
			c-0.8,1.4-2,2.5-3.4,3.3c-1.4,0.8-3.1,1.2-4.9,1.2S436.1,176.8,434.6,175.9z M443.4,174.5c1.2-0.6,2.1-1.6,2.7-2.7
			c0.7-1.2,1-2.4,1-3.9c0-1.4-0.3-2.7-1-3.9c-0.7-1.2-1.6-2.1-2.7-2.7s-2.5-1-3.9-1c-1.4,0-2.7,0.3-3.9,1s-2.1,1.6-2.8,2.7
			c-0.7,1.2-1,2.4-1,3.9c0,1.4,0.3,2.7,1,3.9c0.7,1.2,1.6,2.1,2.8,2.7c1.2,0.7,2.5,1,3.9,1C441,175.4,442.3,175.1,443.4,174.5z"/>
		<path class="st2" d="M471.1,177l-4.2-5.8c-0.5,0.1-1,0.1-1.5,0.1h-4.9v5.8h-1.9v-18.2h6.8c2.3,0,4.1,0.6,5.5,1.7s2,2.6,2,4.6
			c0,1.4-0.4,2.6-1.1,3.6c-0.7,1-1.7,1.7-3.1,2.1l4.4,6.2H471.1z M469.6,168.4c1-0.8,1.4-1.9,1.4-3.4c0-1.5-0.5-2.6-1.4-3.4
			c-1-0.8-2.3-1.2-4.1-1.2h-4.8v9.1h4.8C467.2,169.6,468.6,169.2,469.6,168.4z"/>
		<path class="st2" d="M495,160.5c1.3,1.1,2,2.6,2,4.6s-0.7,3.5-2,4.6c-1.3,1.1-3.1,1.7-5.5,1.7h-4.9v5.7h-1.9v-18.2h6.8
			C491.9,158.8,493.7,159.4,495,160.5z M493.6,168.4c1-0.8,1.4-1.9,1.4-3.3c0-1.5-0.5-2.6-1.4-3.4c-1-0.8-2.3-1.2-4.1-1.2h-4.8v9.1
			h4.8C491.3,169.6,492.7,169.2,493.6,168.4z"/>
		<path class="st2" d="M509.7,175.9c-1.5-0.8-2.6-1.9-3.4-3.3c-0.8-1.4-1.2-3-1.2-4.7s0.4-3.3,1.2-4.7c0.8-1.4,2-2.5,3.4-3.3
			c1.5-0.8,3.1-1.2,4.9-1.2s3.4,0.4,4.9,1.2c1.4,0.8,2.6,1.9,3.4,3.3s1.2,3,1.2,4.7s-0.4,3.3-1.2,4.7c-0.8,1.4-2,2.5-3.4,3.3
			c-1.4,0.8-3.1,1.2-4.9,1.2S511.2,176.8,509.7,175.9z M518.5,174.5c1.2-0.6,2.1-1.6,2.7-2.7c0.7-1.2,1-2.4,1-3.9
			c0-1.4-0.3-2.7-1-3.9c-0.7-1.2-1.6-2.1-2.7-2.7s-2.5-1-3.9-1c-1.4,0-2.7,0.3-3.9,1s-2.1,1.6-2.8,2.7c-0.7,1.2-1,2.4-1,3.9
			c0,1.4,0.3,2.7,1,3.9c0.7,1.2,1.6,2.1,2.8,2.7c1.2,0.7,2.5,1,3.9,1C516.1,175.4,517.4,175.1,518.5,174.5z"/>
		<path class="st2" d="M546.2,177l-4.2-5.8c-0.5,0.1-1,0.1-1.5,0.1h-4.9v5.8h-1.9v-18.2h6.8c2.3,0,4.1,0.6,5.5,1.7
			c1.3,1.1,2,2.6,2,4.6c0,1.4-0.4,2.6-1.1,3.6c-0.7,1-1.7,1.7-3.1,2.1l4.4,6.2H546.2z M544.7,168.4c1-0.8,1.4-1.9,1.4-3.4
			c0-1.5-0.5-2.6-1.4-3.4c-1-0.8-2.3-1.2-4.1-1.2h-4.8v9.1h4.8C542.3,169.6,543.7,169.2,544.7,168.4z"/>
		<path class="st2" d="M569.3,172.1h-10.1l-2.2,4.9h-2l8.3-18.2h1.9l8.3,18.2h-2L569.3,172.1z M568.6,170.6l-4.4-9.8l-4.4,9.8H568.6
			z"/>
		<path class="st2" d="M584.4,160.5H578v-1.7h14.7v1.7h-6.4V177h-1.9V160.5z"/>
		<path class="st2" d="M601.1,158.8h1.9V177h-1.9V158.8z"/>
		<path class="st2" d="M617.2,175.9c-1.5-0.8-2.6-1.9-3.4-3.3c-0.8-1.4-1.2-3-1.2-4.7s0.4-3.3,1.2-4.7c0.8-1.4,2-2.5,3.4-3.3
			c1.5-0.8,3.1-1.2,4.9-1.2s3.4,0.4,4.9,1.2c1.4,0.8,2.6,1.9,3.4,3.3s1.2,3,1.2,4.7s-0.4,3.3-1.2,4.7c-0.8,1.4-2,2.5-3.4,3.3
			c-1.4,0.8-3.1,1.2-4.9,1.2S618.7,176.8,617.2,175.9z M626,174.5c1.2-0.6,2.1-1.6,2.7-2.7c0.7-1.2,1-2.4,1-3.9c0-1.4-0.3-2.7-1-3.9
			c-0.7-1.2-1.6-2.1-2.7-2.7s-2.5-1-3.9-1c-1.4,0-2.7,0.3-3.9,1s-2.1,1.6-2.8,2.7c-0.7,1.2-1,2.4-1,3.9c0,1.4,0.3,2.7,1,3.9
			c0.7,1.2,1.6,2.1,2.8,2.7c1.2,0.7,2.5,1,3.9,1C623.6,175.4,624.9,175.1,626,174.5z"/>
		<path class="st2" d="M656.5,158.8V177h-1.6l-11.7-14.8V177h-1.9v-18.2h1.6l11.7,14.8v-14.8H656.5z"/>
	</g>
</g>
</svg>
