<?xml version="1.0" encoding="utf-8"?>
<!-- Generator: Adobe Illustrator 21.0.0, SVG Export Plug-In . SVG Version: 6.00 Build 0)  -->
<svg version="1.1" id="Layer_1" xmlns="http://www.w3.org/2000/svg" xmlns:xlink="http://www.w3.org/1999/xlink" x="0px" y="0px"
	 viewBox="0 0 298 92" style="enable-background:new 0 0 298 92;" xml:space="preserve">
<style type="text/css">
	.st0{enable-background:new    ;}
	.st1{fill:#F99746;}
</style>
<g class="st0">
	<path class="st1" d="M7.4,58.1c2.1,2.3,4,4,5.9,5.1c2,1.1,3.9,1.7,5.8,1.7c1.8,0,3.2-0.5,4.4-1.4c1.2-1,1.8-2.2,1.8-3.7
		c0-1.6-0.5-2.9-1.4-3.8c-1-0.9-3.3-1.8-6.8-2.7c-4.8-1.3-8.2-3-10.2-5.1c-2-2.1-3-5-3-8.6c0-4.7,1.6-8.6,4.7-11.5
		c3.1-3,7.2-4.5,12.3-4.5c2.8,0,5.4,0.4,7.7,1.1c2.4,0.7,4.7,1.8,6.9,3.3l-4.2,9.7c-1.5-1.3-3.1-2.3-4.7-3c-1.6-0.7-3.2-1-4.7-1
		c-1.6,0-2.9,0.4-3.9,1.2c-1,0.7-1.5,1.7-1.5,3c0,1.2,0.4,2.2,1.3,3c0.9,0.7,2.6,1.4,5.2,2.1c0.1,0,0.2,0,0.2,0.1s0.2,0,0.3,0.1
		c5.5,1.5,9.1,3.1,10.8,4.9c1.1,1.1,2,2.6,2.7,4.3c0.6,1.7,0.9,3.5,0.9,5.7c0,5.2-1.7,9.4-5.2,12.6c-3.5,3.2-8,4.8-13.7,4.8
		c-3.5,0-6.6-0.6-9.4-1.7s-5.5-3-8.1-5.5L7.4,58.1z"/>
	<path class="st1" d="M45.3,74V24.7h13.4v19.2h18V24.7h13.4V74H76.7V53.9h-18V74H45.3z"/>
	<path class="st1" d="M101,74V24.7h13.6V74H101z"/>
	<path class="st1" d="M138,74h-12.6V24.7h14.1c5.5,0,9.3,0.3,11.6,0.8c2.2,0.6,4.1,1.5,5.6,2.8c1.8,1.5,3.2,3.4,4.1,5.6
		c1,2.3,1.4,4.8,1.4,7.6c0,3-0.5,5.5-1.4,7.8c-0.9,2.2-2.2,4.1-4.1,5.5c-1.4,1.1-3,1.9-5,2.3c-1.7,0.5-4.7,0.7-9,0.7h-2.3H138V74z
		 M138,46.9h2.6c3.2,0,5.4-0.5,6.8-1.4c1.3-0.9,1.9-2.3,1.9-4.5c0-2-0.6-3.5-1.9-4.4c-1.2-0.9-3.5-1.3-6.7-1.3H138V46.9z"/>
	<path class="st1" d="M181.8,74h-12.6V24.7h14.1c5.5,0,9.3,0.3,11.6,0.8c2.2,0.6,4.1,1.5,5.6,2.8c1.8,1.5,3.2,3.4,4.1,5.6
		c1,2.3,1.4,4.8,1.4,7.6c0,3-0.5,5.5-1.4,7.8c-0.9,2.2-2.2,4.1-4.1,5.5c-1.4,1.1-3,1.9-5,2.3c-1.7,0.5-4.7,0.7-9,0.7h-2.3h-2.4V74z
		 M181.8,46.9h2.6c3.2,0,5.4-0.5,6.8-1.4c1.3-0.9,1.9-2.3,1.9-4.5c0-2-0.6-3.5-1.9-4.4c-1.2-0.9-3.5-1.3-6.7-1.3h-2.7V46.9z"/>
	<path class="st1" d="M212.9,74V24.7h30.2v10.8H226V44h16.1v10.6H226v8.3h17.1V74H212.9z"/>
	<path class="st1" d="M252,74V24.7H266c2.7,0,5,0.1,6.9,0.2c1.9,0.1,3.4,0.3,4.6,0.6c2.1,0.5,4,1.3,5.6,2.6c1.8,1.3,3.2,3.1,4.1,5.2
		c1,2,1.4,4.3,1.4,6.9c0,3.8-0.9,6.9-2.8,9.3c-1.8,2.4-4.6,4-8.2,4.8L291.1,74h-15.2l-11.3-19.3V74H252z M264.6,48h2.5
		c2.9,0,5.1-0.5,6.4-1.4c1.3-1.1,2-2.6,2-4.7c0-2.5-0.6-4.2-1.9-5.3c-1.3-1.1-3.4-1.6-6.3-1.6h-2.7V48z"/>
</g>
</svg>
