<svg xmlns="http://www.w3.org/2000/svg" width="425" height="115.266" viewBox="0 0 425 115.266">
  <defs>
    <style>
      .cls-1 {
        fill: #f99746;
      }

      .cls-2 {
        fill: #a2a5fc;
      }
    </style>
  </defs>
  <g id="main-logo" transform="translate(-235.8 -63.1)">
    <g id="Group_42" data-name="Group 42" transform="translate(235.8 63.1)">
      <path id="Path_459" data-name="Path 459" class="cls-1" d="M244.69,112.9a33.3,33.3,0,0,0,8.486,7.274,16.556,16.556,0,0,0,8.284,2.425,9.68,9.68,0,0,0,6.364-2.121,6.454,6.454,0,0,0,2.526-5.253,7.077,7.077,0,0,0-2.121-5.455c-1.515-1.212-4.748-2.526-9.8-3.94-6.869-1.818-11.719-4.243-14.648-7.274s-4.344-7.173-4.344-12.426c0-6.768,2.222-12.325,6.768-16.568,4.445-4.243,10.3-6.465,17.578-6.465A35.165,35.165,0,0,1,274.9,64.716a37.218,37.218,0,0,1,9.9,4.748L278.734,83.3a25.3,25.3,0,0,0-6.768-4.243,18.479,18.479,0,0,0-6.768-1.414,9.4,9.4,0,0,0-5.657,1.717,5.389,5.389,0,0,0-.3,8.486c1.313,1.111,3.839,2.121,7.476,3.031.1,0,.2.1.3.1s.2.1.4.1c7.88,2.121,13.032,4.445,15.557,7.072a16.861,16.861,0,0,1,3.839,6.263,25.157,25.157,0,0,1,1.212,8.082c0,7.476-2.424,13.537-7.375,18.083s-11.517,6.768-19.7,6.768a35.019,35.019,0,0,1-13.436-2.425,38.566,38.566,0,0,1-11.719-7.88Z" transform="translate(-235.8 -63.1)"/>
      <path id="Path_460" data-name="Path 460" class="cls-1" d="M298.4,135.716V64.9h19.3V92.378h25.761V64.9h19.3v70.816h-19.3V106.925H317.7v28.791Z" transform="translate(-235.16 -63.082)"/>
      <path id="Path_461" data-name="Path 461" class="cls-1" d="M377.5,135.716V64.9H397v70.816Z" transform="translate(-234.352 -63.082)"/>
      <path id="Path_462" data-name="Path 462" class="cls-1" d="M430.183,135.716H412.1V64.9h20.2c7.88,0,13.436.4,16.669,1.111a19.537,19.537,0,0,1,8.082,3.94,21.283,21.283,0,0,1,5.96,7.981,26.952,26.952,0,0,1,2.121,10.91,26.925,26.925,0,0,1-2.121,11.112,17.137,17.137,0,0,1-5.96,7.88,19.117,19.117,0,0,1-7.072,3.334c-2.526.707-6.768,1.01-12.931,1.01h-6.87Zm0-38.893h3.637c4.546,0,7.779-.707,9.7-2.02,1.818-1.212,2.728-3.334,2.728-6.465,0-2.93-.909-5.051-2.728-6.263-1.818-1.313-4.95-1.919-9.6-1.919h-3.738Z" transform="translate(-233.998 -63.082)"/>
      <path id="Path_463" data-name="Path 463" class="cls-1" d="M492.383,135.716H474.3V64.9h20.2c7.88,0,13.436.4,16.669,1.111a19.537,19.537,0,0,1,8.082,3.94,21.283,21.283,0,0,1,5.96,7.981,26.951,26.951,0,0,1,2.121,10.91,26.925,26.925,0,0,1-2.121,11.112,17.136,17.136,0,0,1-5.96,7.88,19.116,19.116,0,0,1-7.072,3.334c-2.525.707-6.768,1.01-12.931,1.01h-6.768v23.538Zm0-38.893h3.637c4.546,0,7.779-.707,9.7-2.02,1.818-1.212,2.728-3.334,2.728-6.465,0-2.93-.909-5.051-2.728-6.263-1.818-1.313-4.95-1.919-9.6-1.919h-3.839V96.823Z" transform="translate(-233.362 -63.082)"/>
      <path id="Path_464" data-name="Path 464" class="cls-1" d="M536.4,135.716V64.9h43.339V80.457H555.19V92.681h23.134v15.254H555.19v11.921h24.548v15.86Z" transform="translate(-232.728 -63.082)"/>
      <path id="Path_465" data-name="Path 465" class="cls-1" d="M591.9,135.716V64.9h20.2c3.94,0,7.173.1,9.9.2a46.176,46.176,0,0,1,6.667.808,21.366,21.366,0,0,1,7.981,3.637,17.814,17.814,0,0,1,5.859,7.476,22.276,22.276,0,0,1,2.121,9.9c0,5.455-1.313,9.9-4.041,13.436-2.627,3.435-6.566,5.758-11.719,6.768l19.3,28.488H626.349l-16.265-27.68v27.781Zm18.083-37.277h3.536q6.364,0,9.092-2.121c1.919-1.515,2.829-3.738,2.829-6.768,0-3.536-.909-6.061-2.627-7.577-1.818-1.515-4.849-2.222-8.991-2.222h-3.839Z" transform="translate(-232.16 -63.082)"/>
    </g>
    <g id="Group_43" data-name="Group 43" transform="translate(239.235 159.576)">
      <path id="Path_466" data-name="Path 466" class="cls-2" d="M242.13,176.683a7.505,7.505,0,0,1-2.93-1.717l.808-1.515a6.822,6.822,0,0,0,2.627,1.616,9.837,9.837,0,0,0,3.435.606,6.376,6.376,0,0,0,3.738-.909,2.831,2.831,0,0,0,1.212-2.324,2.081,2.081,0,0,0-.707-1.717,4.4,4.4,0,0,0-1.616-1.01c-.606-.2-1.515-.505-2.728-.808a22.687,22.687,0,0,1-3.334-1.01,5.159,5.159,0,0,1-2.121-1.515,4.043,4.043,0,0,1-.909-2.728,4.339,4.339,0,0,1,.707-2.526,4.459,4.459,0,0,1,2.222-1.818,8.519,8.519,0,0,1,3.738-.707,11.114,11.114,0,0,1,3.132.4,9.022,9.022,0,0,1,2.627,1.212l-.707,1.515a8.648,8.648,0,0,0-2.425-1.111,10.965,10.965,0,0,0-2.526-.4,6.029,6.029,0,0,0-3.637.909,2.88,2.88,0,0,0-1.212,2.425,2.434,2.434,0,0,0,.707,1.818,4.084,4.084,0,0,0,1.717,1.01c.707.2,1.616.505,2.728.808a25.119,25.119,0,0,1,3.233,1.01,5.159,5.159,0,0,1,2.121,1.515,3.777,3.777,0,0,1,.909,2.627,4.339,4.339,0,0,1-.707,2.526,4.721,4.721,0,0,1-2.323,1.818,10.413,10.413,0,0,1-3.839.707A12.4,12.4,0,0,1,242.13,176.683Z" transform="translate(-239.2 -158.6)"/>
      <path id="Path_467" data-name="Path 467" class="cls-2" d="M277.555,158.8v18.386h-1.919V168.7H264.119v8.486H262.2V158.8h1.919v8.183h11.517V158.8Z" transform="translate(-238.965 -158.598)"/>
      <path id="Path_468" data-name="Path 468" class="cls-2" d="M288.6,158.8h1.919v18.386H288.6Z" transform="translate(-238.695 -158.598)"/>
      <path id="Path_469" data-name="Path 469" class="cls-2" d="M314.126,160.516a6.354,6.354,0,0,1,0,9.294,8.3,8.3,0,0,1-5.556,1.717h-4.95v5.758H301.7V158.9h6.869A7.784,7.784,0,0,1,314.126,160.516Zm-1.313,7.981a3.962,3.962,0,0,0,1.414-3.334,4.337,4.337,0,0,0-1.414-3.435,6.327,6.327,0,0,0-4.142-1.212h-4.849v9.193h4.849A6.518,6.518,0,0,0,312.812,168.5Z" transform="translate(-238.561 -158.597)"/>
      <path id="Path_470" data-name="Path 470" class="cls-2" d="M337.826,160.516a6.354,6.354,0,0,1,0,9.294,8.3,8.3,0,0,1-5.556,1.717h-4.95v5.758H325.4V158.9h6.87A7.784,7.784,0,0,1,337.826,160.516Zm-1.313,7.981a3.962,3.962,0,0,0,1.414-3.334,4.337,4.337,0,0,0-1.414-3.435,6.327,6.327,0,0,0-4.142-1.212h-4.849v9.193h4.849A6.518,6.518,0,0,0,336.512,168.5Z" transform="translate(-238.319 -158.597)"/>
      <path id="Path_471" data-name="Path 471" class="cls-2" d="M362.132,175.469v1.717H349.1V158.8h12.628v1.717H351.019v6.566h9.5V168.7h-9.5v6.869h11.112Z" transform="translate(-238.077 -158.598)"/>
      <path id="Path_472" data-name="Path 472" class="cls-2" d="M384.328,177.185l-4.243-5.859a7.647,7.647,0,0,1-1.515.1h-4.95v5.859H371.7V158.9h6.869a8.686,8.686,0,0,1,5.556,1.717,5.461,5.461,0,0,1,2.02,4.647,6.21,6.21,0,0,1-1.111,3.637,5.466,5.466,0,0,1-3.132,2.121l4.445,6.263h-2.02Zm-1.515-8.688a4.038,4.038,0,0,0,1.414-3.435,4.337,4.337,0,0,0-1.414-3.435,6.327,6.327,0,0,0-4.142-1.212h-4.849v9.193h4.849A5.649,5.649,0,0,0,382.812,168.5Z" transform="translate(-237.846 -158.597)"/>
      <path id="Path_473" data-name="Path 473" class="cls-2" d="M411.047,176.176a9.071,9.071,0,0,1-3.435-3.334,9.9,9.9,0,0,1,0-9.5,9.071,9.071,0,0,1,3.435-3.334A10.26,10.26,0,0,1,416,158.8a8.818,8.818,0,0,1,3.738.707,8.459,8.459,0,0,1,2.93,2.02l-1.212,1.212A7.461,7.461,0,0,0,416,160.517a7.638,7.638,0,0,0-3.94,1.01,8.141,8.141,0,0,0-2.829,2.728,7.8,7.8,0,0,0,0,7.678,8.142,8.142,0,0,0,2.829,2.728,7.638,7.638,0,0,0,3.94,1.01,7.088,7.088,0,0,0,5.455-2.222l1.212,1.212a8.459,8.459,0,0,1-2.93,2.02,9.619,9.619,0,0,1-3.839.707A10.153,10.153,0,0,1,411.047,176.176Z" transform="translate(-237.491 -158.598)"/>
      <path id="Path_474" data-name="Path 474" class="cls-2" d="M434.647,176.076a8.407,8.407,0,0,1-3.435-3.334,9.9,9.9,0,0,1,0-9.5,9.071,9.071,0,0,1,3.435-3.334,10.712,10.712,0,0,1,9.9,0,9.071,9.071,0,0,1,3.435,3.334,9.9,9.9,0,0,1,0,9.5,9.071,9.071,0,0,1-3.435,3.334,9.983,9.983,0,0,1-4.95,1.212A9.242,9.242,0,0,1,434.647,176.076Zm8.89-1.414a6.458,6.458,0,0,0,2.728-2.728,7.392,7.392,0,0,0,1.01-3.94,7.638,7.638,0,0,0-1.01-3.94,7.072,7.072,0,0,0-2.728-2.728,8.443,8.443,0,0,0-3.94-1.01,7.638,7.638,0,0,0-3.94,1.01,8.142,8.142,0,0,0-2.829,2.728,7.392,7.392,0,0,0-1.01,3.94,7.638,7.638,0,0,0,1.01,3.94,6.687,6.687,0,0,0,2.829,2.728,7.638,7.638,0,0,0,3.94,1.01A9.441,9.441,0,0,0,443.537,174.661Z" transform="translate(-237.25 -158.599)"/>
      <path id="Path_475" data-name="Path 475" class="cls-2" d="M471.228,177.185l-4.243-5.859a7.647,7.647,0,0,1-1.515.1h-4.95v5.859H458.6V158.9h6.869a8.686,8.686,0,0,1,5.556,1.717,5.461,5.461,0,0,1,2.02,4.647,6.21,6.21,0,0,1-1.111,3.637,5.465,5.465,0,0,1-3.132,2.121l4.445,6.263h-2.02Zm-1.515-8.688a4.038,4.038,0,0,0,1.414-3.435,4.337,4.337,0,0,0-1.414-3.435,6.327,6.327,0,0,0-4.142-1.212h-4.849v9.193h4.849A5.942,5.942,0,0,0,469.712,168.5Z" transform="translate(-236.958 -158.597)"/>
      <path id="Path_476" data-name="Path 476" class="cls-2" d="M495.126,160.516a6.354,6.354,0,0,1,0,9.294,8.3,8.3,0,0,1-5.556,1.717h-4.95v5.758H482.7V158.9h6.869A7.784,7.784,0,0,1,495.126,160.516Zm-1.414,7.981a3.962,3.962,0,0,0,1.414-3.334,4.337,4.337,0,0,0-1.414-3.435,6.327,6.327,0,0,0-4.142-1.212H484.72v9.193h4.849A6.144,6.144,0,0,0,493.711,168.5Z" transform="translate(-236.711 -158.597)"/>
      <path id="Path_477" data-name="Path 477" class="cls-2" d="M509.747,176.076a8.407,8.407,0,0,1-3.435-3.334,9.9,9.9,0,0,1,0-9.5,9.071,9.071,0,0,1,3.435-3.334,10.713,10.713,0,0,1,9.9,0,9.071,9.071,0,0,1,3.435,3.334,9.9,9.9,0,0,1,0,9.5,9.071,9.071,0,0,1-3.435,3.334,9.983,9.983,0,0,1-4.95,1.212A9.241,9.241,0,0,1,509.747,176.076Zm8.89-1.414a6.459,6.459,0,0,0,2.728-2.728,7.393,7.393,0,0,0,1.01-3.94,7.639,7.639,0,0,0-1.01-3.94,7.072,7.072,0,0,0-2.728-2.728,8.444,8.444,0,0,0-3.94-1.01,7.639,7.639,0,0,0-3.94,1.01,8.142,8.142,0,0,0-2.829,2.728,7.392,7.392,0,0,0-1.01,3.94,7.638,7.638,0,0,0,1.01,3.94,6.687,6.687,0,0,0,2.829,2.728,7.639,7.639,0,0,0,3.94,1.01A9.441,9.441,0,0,0,518.637,174.661Z" transform="translate(-236.482 -158.599)"/>
      <path id="Path_478" data-name="Path 478" class="cls-2" d="M546.328,177.185l-4.243-5.859a7.647,7.647,0,0,1-1.515.1h-4.95v5.859H533.7V158.9h6.869a8.686,8.686,0,0,1,5.556,1.717,5.746,5.746,0,0,1,2.02,4.647,6.21,6.21,0,0,1-1.111,3.637,5.466,5.466,0,0,1-3.132,2.121l4.445,6.263h-2.02Zm-1.515-8.688a4.038,4.038,0,0,0,1.414-3.435,4.337,4.337,0,0,0-1.414-3.435,6.327,6.327,0,0,0-4.142-1.212h-4.849v9.193h4.849A5.942,5.942,0,0,0,544.812,168.5Z" transform="translate(-236.19 -158.597)"/>
      <path id="Path_479" data-name="Path 479" class="cls-2" d="M569.446,172.236h-10.2l-2.223,4.95H555l8.385-18.386H565.3l8.385,18.386h-2.02Zm-.707-1.515-4.445-9.9-4.445,9.9Z" transform="translate(-235.972 -158.598)"/>
      <path id="Path_480" data-name="Path 480" class="cls-2" d="M584.465,160.517H578V158.8h14.85v1.717h-6.465v16.669h-1.919Z" transform="translate(-235.737 -158.598)"/>
      <path id="Path_481" data-name="Path 481" class="cls-2" d="M601.1,158.8h1.919v18.386H601.1Z" transform="translate(-235.501 -158.598)"/>
      <path id="Path_482" data-name="Path 482" class="cls-2" d="M617.247,176.076a8.407,8.407,0,0,1-3.435-3.334,9.9,9.9,0,0,1,0-9.5,9.07,9.07,0,0,1,3.435-3.334,10.713,10.713,0,0,1,9.9,0,9.071,9.071,0,0,1,3.435,3.334,9.9,9.9,0,0,1,0,9.5,9.071,9.071,0,0,1-3.435,3.334,9.983,9.983,0,0,1-4.95,1.212A9.241,9.241,0,0,1,617.247,176.076Zm8.89-1.414a6.459,6.459,0,0,0,2.728-2.728,7.392,7.392,0,0,0,1.01-3.94,7.638,7.638,0,0,0-1.01-3.94,7.072,7.072,0,0,0-2.728-2.728,8.443,8.443,0,0,0-3.94-1.01,7.639,7.639,0,0,0-3.94,1.01,8.142,8.142,0,0,0-2.829,2.728,7.392,7.392,0,0,0-1.01,3.94,7.638,7.638,0,0,0,1.01,3.94,6.688,6.688,0,0,0,2.829,2.728,7.639,7.639,0,0,0,3.94,1.01A9.44,9.44,0,0,0,626.137,174.661Z" transform="translate(-235.384 -158.599)"/>
      <path id="Path_483" data-name="Path 483" class="cls-2" d="M656.655,158.8v18.386h-1.616l-11.82-14.951v14.951H641.3V158.8h1.616l11.82,14.951V158.8Z" transform="translate(-235.09 -158.598)"/>
    </g>
  </g>
</svg>
