<svg xmlns="http://www.w3.org/2000/svg" width="377.944" height="525.27" viewBox="0 0 377.944 525.27">
  <g id="Layer_2" data-name="Layer 2" transform="translate(0)">
    <g id="Слой_2" data-name="Слой 2" transform="translate(0 0)">
      <path id="Path_1" data-name="Path 1" d="M188.966,0C84.591-.028-.028,84.591,0,188.966c0,104.329,188.966,336.3,188.966,336.3S274.786,419.907,330.612,319.3c27.166-48.652,47.332-96.27,47.332-130.3,0-104.374-84.6-188.989-188.978-189Zm0,275.271a88.946,88.946,0,1,1,19.257-2.242A81.769,81.769,0,0,1,188.966,275.271Z" transform="translate(0 0)" fill="#f99746"/>
      <path id="Path_2" data-name="Path 2" d="M330.612,310.938c-55.827,100.6-141.646,205.968-141.646,205.968S0,284.967,0,180.638A188.779,188.779,0,0,1,69.852,33.91C77.014,68.089,88.66,107.2,107.318,144.953a88.187,88.187,0,0,0,81.647,121.991,81.772,81.772,0,0,0,19.257-2.242C241.2,287.209,281.5,303.776,330.612,310.938Z" transform="translate(0 8.327)" fill="#ed7d2b"/>
    </g>
  </g>
</svg>
