<svg xmlns="http://www.w3.org/2000/svg" width="331.418" height="50.646" viewBox="0 0 331.418 50.646">
  <defs>
    <style>
      .cls-1 {
        fill: #a2a5fc;
      }
    </style>
  </defs>
  <path id="samsung" class="cls-1" d="M273.649,16.832l.634,37.193h-.318L263.2,16.832H245.477V63.679h11.711l-.632-38.458h.318l11.553,38.458h16.935V16.832Zm-223,0L41.784,64.156H54.6l6.489-43.05h.316l6.331,43.048H80.4L71.7,16.832Zm71.538,0-5.855,36.086h-.318l-5.855-36.086H90.847L89.9,64.156h11.87l.318-42.576h.157l7.913,42.575h12.029L130.1,21.581h.318l.315,42.573H142.6l-1.107-47.322ZM21.842,50.7A6.641,6.641,0,0,1,22,54.184c-.316,1.583-1.424,3.165-4.59,3.165-3.006,0-4.748-1.74-4.748-4.274V48.486H0v3.64C0,62.73,8.388,65.9,17.252,65.9c8.546,0,15.668-3.008,16.777-10.763a23.181,23.181,0,0,0,0-7.755C31.812,37.407,13.77,34.559,12.5,29.018a6.791,6.791,0,0,1,0-2.533c.318-1.583,1.425-3.165,4.274-3.165s4.433,1.74,4.433,4.274v2.849H33.078V27.12c0-10.288-9.338-11.87-15.985-11.87C8.705,15.249,1.741,18.1.475,25.694a14.35,14.35,0,0,0,.157,6.331C2.533,41.839,19.468,44.688,21.84,50.7m154,0A6.607,6.607,0,0,1,176,54.184c-.318,1.583-1.425,3.165-4.59,3.165-3.008,0-4.748-1.74-4.748-4.274V48.486H154v3.64c0,10.445,8.23,13.612,17.094,13.612,8.546,0,15.51-2.849,16.618-10.763a23.329,23.329,0,0,0,0-7.755c-1.9-9.813-19.784-12.82-21.049-18.2a6.741,6.741,0,0,1,0-2.534c.316-1.583,1.424-3.165,4.273-3.165a4.115,4.115,0,0,1,4.433,4.274v2.849h11.71V27.12c0-10.288-9.179-11.87-15.825-11.87-8.389,0-15.2,2.69-16.46,10.445a17.164,17.164,0,0,0,.157,6.331c1.9,9.813,18.518,12.5,20.893,18.675m39.883,6.331a4.31,4.31,0,0,0,4.589-3.483,6.464,6.464,0,0,0,.159-1.74V16.832H232.5V50.86a18.322,18.322,0,0,1-.157,3.165c-.791,8.864-7.755,11.713-16.46,11.713s-15.668-2.849-16.46-11.713c0-.475-.157-2.215-.157-3.165V16.832H211.29V51.81a5.911,5.911,0,0,0,.159,1.74c0,1.266.95,3.483,4.274,3.483m98.76-.475c3.483,0,4.59-2.216,4.906-3.483a6.463,6.463,0,0,0,.159-1.74V44.529h-4.906V37.565h16.777V50.228a25.819,25.819,0,0,1-.159,3.165c-.791,8.7-8.23,11.711-16.618,11.711S298.815,62.1,298.024,53.393a25.828,25.828,0,0,1-.159-3.166V30.286c0-.793.159-2.375.159-3.166,1.107-8.864,8.23-11.713,16.618-11.713s15.669,2.849,16.618,11.713c.159,1.424.159,3.165.159,3.165v1.583h-11.87v-2.69a9.369,9.369,0,0,0-.159-1.741c-.157-1.107-1.107-3.481-4.748-3.481-3.481,0-4.433,2.215-4.748,3.481a9.7,9.7,0,0,0-.159,2.216V51.335a5.91,5.91,0,0,0,.159,1.74c0,1.266,1.266,3.483,4.589,3.483" transform="translate(0 -15.249)"/>
</svg>
