<svg xmlns="http://www.w3.org/2000/svg" width="171" height="171" viewBox="0 0 171 171">
  <defs>
    <style>
      .cls-1 {
        fill: #a2a5fc;
      }
    </style>
  </defs>
  <path id="tesla" class="cls-1" d="M85.5,38.2l17.634-21.56s30.246.641,60.356,14.635c-7.709,11.656-23.021,17.371-23.021,17.371C139.429,38.4,132.247,35.9,109.447,35.9L85.5,171,61.41,35.867c-22.658,0-29.84,2.522-30.887,12.768,0,0-15.29-5.664-23.007-17.314,30.1-14,60.349-14.649,60.349-14.649L85.5,38.2l-.029.014H85.5Zm0-27.78a195.9,195.9,0,0,1,80.712,16.245A65.833,65.833,0,0,0,171,16.73,233.524,233.524,0,0,0,85.5,0,233.1,233.1,0,0,0,0,16.737a84.462,84.462,0,0,0,4.788,9.947A196.1,196.1,0,0,1,85.5,10.4v.021Z"/>
</svg>
