<svg xmlns="http://www.w3.org/2000/svg" viewBox="0 0 407.05 222.65"><defs><style>.cls-1,.cls-2,.cls-3,.cls-4,.cls-5{fill:#f99a4c;}.cls-1{opacity:0.1;}.cls-2{opacity:0.2;}.cls-3{opacity:0.3;}.cls-4{opacity:0.4;}.cls-5{opacity:0.5;}.cls-6{fill:#fccfaa;}.cls-7{fill:#fbb983;}.cls-8{fill:#fcc496;}.cls-9{fill:#f99746;}</style></defs><title>World_1</title><g id="Layer_2" data-name="Layer 2"><g id="Layer"><polygon class="cls-1" points="84.46 61.98 75.17 33.31 83.4 18.7 84.46 61.98"/><polygon class="cls-2" points="64.2 79.21 70.45 77.25 57.91 39.02 64.2 79.21"/><polygon class="cls-3" points="106.76 12.15 95.84 27.97 83.81 18.61 106.76 12.15"/><polygon class="cls-4" points="169.82 1.31 148.32 19.37 142.48 9.54 169.82 1.31"/><polygon class="cls-1" points="43.7 37.69 21.4 62.78 43.18 52.12 43.7 37.69"/><polygon class="cls-2" points="80.27 70.85 21.26 62.78 79.41 52.56 80.27 70.85"/><polygon class="cls-3" points="57.74 39.51 56.11 65.5 99.73 55.94 57.74 39.51"/><polygon class="cls-3" points="26.64 15.12 43.97 18.7 9.91 21.69 26.64 15.12"/><polygon class="cls-4" points="50.34 81.5 45.16 93.32 35.07 96.77 50.34 81.5"/><polygon class="cls-4" points="64.28 92.92 68.67 88.58 76.03 96.37 64.28 92.92"/><polygon class="cls-4" points="54.52 27.66 67.27 18.9 57.71 38.42 54.52 27.66"/><polygon class="cls-4" points="105.7 147.48 81.94 119.74 73.57 153.59 105.7 147.48"/><polygon class="cls-3" points="117.65 150.98 81.94 119.74 91.56 149.98 117.65 150.98"/><polygon class="cls-3" points="89.24 213.33 97.5 159.79 104.96 161.72 89.24 213.33"/><polygon class="cls-3" points="36.4 26.67 83.4 18.7 75.17 33.31 36.4 26.67"/><polygon class="cls-1" points="117.12 4.9 127.03 1.01 128.8 10.21 117.12 4.9"/><polygon class="cls-2" points="56.16 65.41 29.13 90.8 43.37 52.16 56.16 65.41"/><polygon class="cls-3" points="79.41 52.56 67.47 47.98 100.3 47.8 79.41 52.56"/><polygon class="cls-4" points="81.27 159.7 83.4 179.88 92.16 169.79 81.27 159.7"/><polygon class="cls-4" points="121.1 166.6 105.7 147.48 111.81 173.24 121.1 166.6"/><polygon class="cls-1" points="58.86 94.99 57.06 102.08 29.38 90.89 58.86 94.99"/><polygon class="cls-3" points="174.74 84.55 185.89 103.14 154.56 95.97 174.74 84.55"/><polygon class="cls-4" points="174.07 41.41 181.24 57.74 182.84 45.92 174.07 41.41"/><polygon class="cls-2" points="220.28 47.51 227.31 40.74 203.55 51.23 220.28 47.51"/><polygon class="cls-1" points="206.87 150.4 205.8 125.98 236.07 157.31 206.87 150.4"/><polygon class="cls-4" points="215.89 105.8 205.8 125.98 248.02 103.94 215.89 105.8"/><polygon class="cls-3" points="220.67 61.45 235.14 55.08 233.15 75.53 220.67 61.45"/><polygon class="cls-2" points="200.89 42.2 203.55 51.23 195.31 62.38 200.89 42.2"/><polygon class="cls-1" points="351.05 27.73 240.85 35.96 258.11 42.34 351.05 27.73"/><polygon class="cls-4" points="321.57 95.17 302.72 99.69 291.57 74.46 321.57 95.17"/><polygon class="cls-2" points="190.8 32.91 227.31 40.74 217.75 26.14 190.8 32.91"/><polygon class="cls-1" points="210.72 31.58 217.75 26.14 220.28 47.51 210.72 31.58"/><polygon class="cls-2" points="181.38 57.2 166.03 66.48 176.75 66.4 181.38 57.2"/><polygon class="cls-3" points="227.31 40.74 183.1 46.05 189.34 55.35 227.31 40.74"/><polygon class="cls-1" points="258.11 42.34 227.31 40.74 268.73 56.14 258.11 42.34"/><polygon class="cls-2" points="205.8 125.98 185.89 103.14 192.79 87.74 205.8 125.98"/><polygon class="cls-5" points="189.43 75.22 193.04 87.58 186.12 103.04 189.43 75.22"/><polygon class="cls-1" points="311.22 118.28 325.02 109.65 321.57 95.31 311.22 118.28"/><polygon class="cls-3" points="345.23 170.94 372.15 188.51 368.23 173.25 345.23 170.94"/><polygon class="cls-5" points="307.83 121.26 316.2 138.19 321.97 134.21 307.83 121.26"/><polygon class="cls-3" points="241.12 35.96 287.58 30.12 308.83 39.15 241.12 35.96"/><polygon class="cls-1" points="189.21 55.48 181.22 57.44 189.74 40.61 189.21 55.48"/><polygon class="cls-1" points="227.31 40.74 210.72 31.58 200.89 42.2 227.31 40.74"/><polygon class="cls-2" points="220.28 55.74 224.79 51.36 215.5 52.42 220.28 55.74"/><polygon class="cls-3" points="275.11 101.02 282.54 115.36 291.57 74.2 275.11 101.02"/><polygon class="cls-1" points="212.04 90.79 215.43 105.73 198.9 109.11 212.04 90.79"/><path class="cls-6" d="M22.37,73.85,43.56,51.42,39.84,66.19Zm20.43-21L24,72.7,39.5,65.9Z"/><path class="cls-6" d="M30.25,82.82l-7.58-9.73,35.07-8.37Zm-6.54-9.36L30.38,82,54.57,66.09Z"/><path class="cls-6" d="M23.17,74.22l-2.25-11.6,0-.06,9.1-17.33ZM21.34,62.68l1.87,9.65,5.72-24.12Z"/><path class="cls-6" d="M50.29,82.16,42.82,51.48l14,13.91ZM43.54,52.76l6.84,28.08,6-15.35Z"/><path class="cls-6" d="M20.58,63.4,43.92,37.14l-.54,15.1ZM43.48,38.23,22.22,62.16,43,52Z"/><path class="cls-6" d="M40.09,67.48,29.17,46.74l7.41-21.79ZM29.82,46.69l9.44,17.92-3-36.75Z"/><path class="cls-6" d="M42.5,52.45l15.4-13.7L67.7,47.5Zm15.4-13.17-14,12.5,23-4.52Z"/><path class="cls-6" d="M80.35,71.09,40.74,51.23,84.61,61.71ZM45.63,53,80.07,70.27l3.7-8.15Z"/><path class="cls-6" d="M70.54,77.58l-15-12.32L79.78,52.13ZM56.27,65.34,70.36,76.92,79,53Z"/><path class="cls-6" d="M66.8,47.82l8.38-15.29L84,39.66Zm8.5-14.68L67.74,46.94l15.49-7.37Z"/><path class="cls-6" d="M30,82.63l9.69-17,11,16Zm9.72-16.22-9,15.78L50,81.32Z"/><path class="cls-6" d="M43.89,38.35l-7.75-12,8-8.17ZM36.65,26.43,43.51,37l.25-17.83Z"/><path class="cls-6" d="M43.24,52.67l-16.16-20,28.36-4.55ZM28.19,33.06,43.12,51.57,54.39,28.85Z"/><path class="cls-6" d="M44.21,38,16,30.37,26.63,14.78Zm-27.6-7.9,26.58,7.21L26.65,15.46Z"/><path class="cls-6" d="M57.93,38.63l-14.57-.76,12.08-21ZM44,37.51l13.45.7L55.19,18.13Z"/><path class="cls-6" d="M75.69,35.3,66.94,18.92l3.82-9.65Zm-8.1-16.42,6.78,12.69L70.55,11.41Z"/><path class="cls-6" d="M84.18,18.69,59.32,14l11.36-3.86.08.05Zm-23.3-4.83,21.33,4L70.63,10.56Z"/><path class="cls-6" d="M57.66,39,54.29,27.58l13.49-9.27ZM54.75,27.75l3,10.13,9-18.38Z"/><path class="cls-6" d="M67.65,49,55.4,16.63l12.67,2.91v.16ZM56,17.19,67.28,46.93l.38-27.07Z"/><path class="cls-6" d="M8.56,22l18.07-7.1h.06l18.65,3.86Zm18.1-6.68-15.39,6L42.6,18.62Z"/><path class="cls-6" d="M1.29,36.55,3,26.62l13.94,3.59Zm2-9.43L1.8,35.91,15.65,30.3Z"/><path class="cls-6" d="M2.54,27.08l7.32-5.6.09,0,26.49,4.71,0,.4ZM10,21.9,3.74,26.66l30.57-.43Z"/><path class="cls-6" d="M54.68,28.06,43.5,18.57l12.44-1.9ZM44.43,18.83l9.94,8.44,1.12-10.12Z"/><path class="cls-6" d="M83.09,39.82,95.93,27.6l3.74,11.92ZM95.75,28.33,84.1,39.41l15-.27Z"/><path class="cls-6" d="M67.92,19.89l-.14-.37,34.42-16-8.26,9.23-.06,0Zm32.7-15.18L70.1,18.88l23.63-6.46Z"/><path class="cls-6" d="M93.38,12.81l8.06-9,5.69,8.53Zm8-8.36-7.09,7.93,12.1-.42Z"/><path class="cls-6" d="M92.52,12.84l24.91-8.63-10.61,8.14h-.06Zm22.72-7.45-20.09,7,11.54-.4Z"/><path class="cls-6" d="M116.37,5h0L101.4,4.33l0-.4L128.8.59ZM103.81,4l12.49.56,9-3.17Z"/><path class="cls-6" d="M83.21,18.55l-.12-.08-13-8.23L102.2,3.77Zm-12-8.11,12,7.63L100.62,4.49Z"/><path class="cls-6" d="M74.27,34.19l8.5-15.5,12.08-6.9ZM83.07,19,76.2,31.5,92.82,13.4Z"/><path class="cls-6" d="M95.88,28.25,83.38,18.52l23.86-6.72ZM84.24,18.69l11.55,9,10.48-15.19Z"/><path class="cls-6" d="M95.67,28.24,93.6,12.3l23.1,8.32Zm-1.6-15.35L96,27.7l19.52-7.08Z"/><path class="cls-6" d="M108.56,32.6l-2.41-20.48,10.36,8.43Zm-1.64-19.09,2,17.39,6.75-10.23Z"/><path class="cls-6" d="M109.21,32.65,93.58,12.59l7.93-8.87Zm-15.11-20,14.22,18.26-7-26.32Z"/><path class="cls-6" d="M114.63,41.64,99.25,39.51,95.47,27.44ZM99.56,39.15,113.14,41,96.21,28.49Z"/><path class="cls-6" d="M109.09,49.66l-9-1.7-1-9.22Zm-8.61-2L108,49l-8.32-9.14Z"/><path class="cls-6" d="M84.61,61.63,79,52.29l21.61,3.44ZM79.8,52.82l5,8.32,14.28-5.25Z"/><path class="cls-6" d="M100,56.26,82.84,39.56l17.66,8.12ZM84.78,40.88l14.9,14.48.41-7.45Z"/><path class="cls-6" d="M54.53,66.28,84.26,39.55,79.58,52.7l-.07,0ZM83.36,40.89,57.3,64.33l22-11.91Z"/><path class="cls-6" d="M79.4,52.77l-13-5,35.7-.2ZM68.53,48.17l10.9,4.18L98.48,48Z"/><path class="cls-6" d="M84.92,62.73,66.73,47.08l17-7.76ZM67.47,47.18l17,14.64L83.41,39.92Z"/><path class="cls-6" d="M70.21,77.78,66.87,46.39,80.61,70.77ZM67.77,49.2,70.7,76.73l9.12-6.14Z"/><path class="cls-6" d="M64,79.47,57.71,39,58.1,39,70.7,77.38ZM58.48,41.41,64.36,79l5.84-1.83Z"/><path class="cls-6" d="M68.33,89.77l-4.4-10.68L70.71,77ZM64.47,79.33l3.72,9,2-10.83Z"/><path class="cls-6" d="M34.32,97.23,50.95,80.61,45.31,93.48ZM49.73,82.39,35.82,96.3,45,93.16Z"/><path class="cls-6" d="M29.32,91.52,22.61,72.2l7.92,10.16ZM23.78,74.35,29.14,89.8l1-7.33Z"/><path class="cls-6" d="M34.95,97l-5-15.13L45.59,93.38ZM30.7,82.95,35.2,96.51l9.54-3.26Z"/><path class="cls-6" d="M47.57,102.69l-13-6L45.3,93.06Zm-12-5.9L47,102l-2-8.42Z"/><path class="cls-6" d="M46.56,102.58l12.73-8.39-2,7.81Zm12.08-7.49-10.64,7,8.94-.48Z"/><path class="cls-6" d="M60.59,114,56.8,101.46l6.12,2.62Zm-3.16-11.83,3.11,10.3,1.92-8.14Z"/><path class="cls-6" d="M61.79,114.5l-14.69-12-2.35-10ZM47.46,102.23,59.33,112,45.57,94.16Z"/><path class="cls-6" d="M69.09,115.71l-8.68-2.32,0-.11-3.73-12.34Zm-8.37-2.64L68,115,57.58,102.68Z"/><path class="cls-6" d="M50,81.75l6-16.24,8.53,13.84Zm6.06-15.33L50.64,81.25l13.23-2.19Z"/><path class="cls-6" d="M142.43,10.88,125.94.69l22.78.47ZM128.12,1.33l14.13,8.73,5.39-8.33Z"/><path class="cls-6" d="M129.07,10.55,116.61,4.88,127.18.74ZM117.63,4.91l10.9,5-1.65-8.58Z"/><path class="cls-6" d="M125.27,21.84,128.65,10h.14l14.49-.56ZM129,10.4l-3,10.48,16-11Z"/><path class="cls-6" d="M132.24,31l-7.08-9.91,13,2.55Zm-6.18-9.33,6.19,8.67,5.2-6.44Z"/><path class="cls-6" d="M137.49,24.14l5.07-14.93,5.91,9.57Zm5.17-14-4.49,13.22,9.73-4.74Z"/><path class="cls-6" d="M163.38,11.81,147.55,1.26,170.32.71ZM148.82,1.63l14.44,9.63,6.33-10.13Z"/><path class="cls-6" d="M148.08,19.1l-6-9.75,22.08,1.15ZM143.16,10l5.13,8.3L162,11Z"/><path class="cls-6" d="M137.44,24.27l5-14.75.1,0L171.12.33Zm5.32-14.43-4.55,13.39L168.8,1.49Z"/><path class="cls-6" d="M29.43,47.53,27,33.1l9.62-6.85Zm-2-14.25L29.56,45.9l6.26-18.62Z"/><circle class="cls-6" cx="1.35" cy="35.96" r="1.35"/><circle class="cls-6" cx="3.21" cy="27.2" r="1.35"/><circle class="cls-6" cx="16.22" cy="30.65" r="1.35"/><circle class="cls-6" cx="27.37" cy="33.04" r="1.35"/><circle class="cls-7" cx="29.5" cy="46.58" r="1.35"/><circle class="cls-6" cx="43.83" cy="37.82" r="1.35"/><circle class="cls-6" cx="75.17" cy="33.31" r="1.35"/><circle class="cls-6" cx="83.79" cy="39.68" r="1.35"/><circle class="cls-6" cx="96.01" cy="28.26" r="1.35"/><circle class="cls-6" cx="54.92" cy="28.06" r="1.35"/><circle class="cls-6" cx="67.07" cy="47.58" r="1.35"/><circle class="cls-6" cx="43.37" cy="52.16" r="1.35"/><circle class="cls-6" cx="39.78" cy="66.1" r="1.35"/><circle class="cls-6" cx="56.11" cy="65.5" r="1.35"/><circle class="cls-6" cx="99.73" cy="55.94" r="1.35"/><circle class="cls-6" cx="100.32" cy="47.98" r="1.35"/><circle class="cls-6" cx="108.09" cy="49.77" r="1.35"/><circle class="cls-6" cx="113.92" cy="41.57" r="1.35"/><circle class="cls-6" cx="108.58" cy="31.34" r="1.35"/><circle class="cls-6" cx="99.53" cy="39.61" r="1.35"/><circle class="cls-6" cx="57.91" cy="38.82" r="1.35"/><circle class="cls-6" cx="79.41" cy="52.56" r="1.35"/><circle class="cls-6" cx="36.4" cy="26.67" r="1.35"/><circle class="cls-6" cx="10.11" cy="22.16" r="1.35"/><circle class="cls-6" cx="26.57" cy="15.52" r="1.35"/><circle class="cls-6" cx="44.1" cy="18.97" r="1.35"/><circle class="cls-6" cx="55.78" cy="17.11" r="1.35"/><circle class="cls-7" cx="67.73" cy="19.5" r="1.35"/><circle class="cls-6" cx="60.56" cy="13.92" r="1.35"/><circle class="cls-6" cx="70.65" cy="10.74" r="1.35"/><circle class="cls-6" cx="83.4" cy="18.7" r="1.35"/><circle class="cls-6" cx="94.15" cy="12.53" r="1.35"/><circle class="cls-7" cx="106.77" cy="12.56" r="1.35"/><circle class="cls-6" cx="116.26" cy="20.89" r="1.35"/><circle class="cls-6" cx="101.32" cy="4.56" r="1.35"/><circle class="cls-6" cx="127.01" cy="1.38" r="1.35"/><circle class="cls-6" cx="116.85" cy="4.96" r="1.35"/><circle class="cls-6" cx="129" cy="10.34" r="1.35"/><circle class="cls-6" cx="125.53" cy="21.56" r="1.35"/><circle class="cls-7" cx="132.15" cy="31.16" r="1.35"/><circle class="cls-6" cx="138.12" cy="24.07" r="1.35"/><circle class="cls-6" cx="148.32" cy="19.3" r="1.35"/><circle class="cls-6" cx="163.25" cy="11.14" r="1.35"/><circle class="cls-6" cx="169.84" cy="1.35" r="1.35"/><circle class="cls-6" cx="148.12" cy="1.58" r="1.35"/><circle class="cls-6" cx="142.74" cy="9.94" r="1.35"/><circle class="cls-6" cx="21.26" cy="62.78" r="1.35"/><circle class="cls-6" cx="23.39" cy="73.4" r="1.35"/><circle class="cls-6" cx="29.23" cy="90.66" r="1.35"/><circle class="cls-6" cx="30.29" cy="82.43" r="1.35"/><circle class="cls-6" cx="35.34" cy="96.77" r="1.35"/><circle class="cls-6" cx="47.29" cy="102.34" r="1.35"/><circle class="cls-6" cx="59.1" cy="94.98" r="1.35"/><circle class="cls-6" cx="57.31" cy="101.95" r="1.35"/><circle class="cls-6" cx="63.08" cy="104.53" r="1.35"/><circle class="cls-6" cx="60.3" cy="113.3" r="1.35"/><circle class="cls-6" cx="68.46" cy="115.69" r="1.35"/><circle class="cls-6" cx="45.43" cy="93.05" r="1.35"/><circle class="cls-6" cx="50.47" cy="81.63" r="1.35"/><circle class="cls-6" cx="64.01" cy="79.24" r="1.35"/><circle class="cls-6" cx="68.53" cy="88.54" r="1.35"/><circle class="cls-6" cx="70.39" cy="77.38" r="1.35"/><circle class="cls-6" cx="80.21" cy="70.75" r="1.35"/><circle class="cls-6" cx="84.46" cy="61.98" r="1.35"/><circle class="cls-8" cx="16.22" cy="30.65" r="1.35"/><circle class="cls-8" cx="43.83" cy="37.82" r="1.35"/><circle class="cls-8" cx="83.79" cy="39.68" r="1.35"/><circle class="cls-8" cx="96.01" cy="28.26" r="1.35"/><circle class="cls-8" cx="43.37" cy="52.16" r="1.35"/><circle class="cls-8" cx="56.11" cy="65.5" r="1.35"/><circle class="cls-8" cx="113.92" cy="41.57" r="1.35"/><circle class="cls-8" cx="108.58" cy="31.34" r="1.35"/><circle class="cls-8" cx="57.91" cy="38.82" r="1.35"/><circle class="cls-8" cx="44.1" cy="18.97" r="1.35"/><circle class="cls-8" cx="70.65" cy="10.74" r="1.35"/><circle class="cls-8" cx="83.4" cy="18.7" r="1.35"/><circle class="cls-8" cx="129" cy="10.34" r="1.35"/><circle class="cls-8" cx="148.32" cy="19.3" r="1.35"/><circle class="cls-8" cx="169.84" cy="1.35" r="1.35"/><circle class="cls-8" cx="142.74" cy="9.94" r="1.35"/><circle class="cls-8" cx="29.23" cy="90.66" r="1.35"/><circle class="cls-8" cx="30.29" cy="82.43" r="1.35"/><circle class="cls-8" cx="59.1" cy="94.98" r="1.35"/><circle class="cls-8" cx="57.31" cy="101.95" r="1.35"/><circle class="cls-8" cx="50.47" cy="81.63" r="1.35"/><circle class="cls-8" cx="80.21" cy="70.75" r="1.35"/><path class="cls-8" d="M58.17,39l-.29-.06L15.81,30.69,44.14,18.82l.05.08ZM16.63,30.61l41,8L44.06,19.12Z"/><path class="cls-8" d="M56.15,65.58,43.26,52.29,58,38.52ZM43.61,52.3,55.95,65l1.82-25.92Z"/><path class="cls-8" d="M80.89,71.09,80.45,71,56.36,65.81l0-.05L43.49,37.22l.42.38ZM56.53,65.6l23.54,5.07L44.18,38.16Z"/><path class="cls-8" d="M83.81,39.58l-.54-20.8,25.67,12.56Zm-.29-20.42L84,39.25l24.26-8Z"/><path class="cls-8" d="M114.84,42,95.44,27.86l13.26,3.35,0,0ZM96.58,28.4l17.5,12.72-5.54-9.7Z"/><path class="cls-8" d="M84,40.15,70.5,10.26l.36.25L96.2,28.11l-.1.1ZM71.07,11l13,28.79L95.82,28.15Z"/><path class="cls-8" d="M56.55,39.51l26.71-21,13.43,9.79Zm26.73-20.3-24,18.91L95.34,28Z"/><path class="cls-8" d="M148.29,19.55l-6-10.08.15,0L170.35,1Zm-5.63-9.94,5.69,9.57,21-17.59Z"/><path class="cls-8" d="M57.15,102.25,28.44,90.64,59,94.89ZM30.32,91.14,57,101.92l1.73-6.83Z"/><path class="cls-8" d="M29.08,90.85l1.1-8.54h.1l20.83-.82Zm1.31-8.31-1,7.92,20.45-8.69Z"/><path class="cls-8" d="M28.85,91.24l14.48-39.3.13.14L56.33,65.41ZM43.42,52.38l-14,38L56,65.41Z"/><path class="cls-6" d="M69.68,124.32l1.72-8.59,0,0,7.38-6.53.1,0,11.34,3.18Zm2.08-8.38-1.52,7.6,19-11-10.33-2.9Z"/><path class="cls-6" d="M82.24,120.06,71.34,116,79,109Zm-10.15-4.25,9.54,3.59-2.85-9.67Z"/><path class="cls-6" d="M78.18,131.37l-8.58-7.73,12.65-4.22Zm-7.8-7.57L78,130.67l3.62-10.62Z"/><path class="cls-6" d="M98.24,120.48l-16.79-.56,8.33-7.76Zm-15.81-.93,14.81.5-7.47-7.34Z"/><path class="cls-6" d="M98.68,130.17l-1.17-10.1h5.71Zm-.72-9.7,1,8.22,3.69-8.22Z"/><path class="cls-6" d="M73.25,154.18,78,130.57l8.75,10.55Zm4.95-22.71L73.89,153,86.18,141.1Z"/><path class="cls-6" d="M74.07,155.22l-9.59-18.74,5.67-13.94Zm-8.93-18.77L73.08,152,69.83,124.9Z"/><path class="cls-6" d="M106.09,148,77.26,130.42l21.67-1.2.05.14ZM78.57,130.75,105.31,147l-6.64-17.38Z"/><path class="cls-6" d="M93.74,154.27l-.1-.17L86,140.76l20.18,6.68Zm-6.86-12.81,7,12.27,11.31-6.2Z"/><path class="cls-6" d="M81.24,159.93,73,153.38l21.71.44Zm-7.09-6.13,7.14,5.66,11.63-5.28Z"/><path class="cls-6" d="M105.66,149l-3-29.64,6.07,10.12v.07Zm-2.46-27.9,2.54,24.79,2.54-16.32Z"/><path class="cls-6" d="M118.32,152.88,107.83,128.8l9.31,5.76Zm-9.18-22.57,8.36,19.2-.94-14.61Z"/><path class="cls-6" d="M117.44,151.69l7.65-14.9,4.24,8.39Zm7.65-14-6.7,13L128.8,145Z"/><path class="cls-6" d="M123.88,157l-7.34-22.58,8.76,2.64Zm-6.72-22,6.47,19.91,1.25-17.58Z"/><path class="cls-6" d="M106.68,163l23-18.65-5.74,11.77-.07,0Zm21.81-17.21L109,161.68l14.64-5.86Z"/><path class="cls-6" d="M111,174.07l13.16-19.56-3.1,12.19Zm12.21-17.44-10.61,15.77,8.12-5.94Z"/><path class="cls-6" d="M107.69,162.8l-2.23-15.6,12.81,3.9Zm-1.75-15,2,14.14,9.59-10.6Z"/><path class="cls-6" d="M95.31,183.09l12.55-21.2,4.18,11.44-.14.08Zm12.47-20.28L96.44,182l15.13-8.82Z"/><path class="cls-6" d="M103.58,193.5l-8.28-11.42,12.56,5.14ZM96.45,183l7.12,9.83,3.68-5.41Z"/><path class="cls-6" d="M107.65,187.71l-16-18.22,20.43,3.59Zm-15-17.63,14.79,16.83,4.08-13.51Z"/><path class="cls-6" d="M91.92,170.12l1.73-16.45,14.6,8.7ZM94,154.33l-1.59,15.12,15-7.12Z"/><path class="cls-6" d="M83.25,180.35,81,159.19l11.42,10.58ZM81.53,160.2l2,19.2,8.34-9.6Z"/><path class="cls-6" d="M83.1,193.8V179.51l13.43,2.86Zm.6-13.55v12.26l11.53-9.81Z"/><path class="cls-6" d="M89.15,213.48,83,192.59,97,204Zm-5.38-19.77,5.55,18.93,7.07-8.58Z"/><path class="cls-6" d="M96.5,204.69l-.84-22.8,8.16,11.26-.07.11Zm-.4-21.51.75,20.21,6.49-10.23Z"/><path class="cls-6" d="M103.27,222l-14.82-9.19,8.59.59.05.08ZM90,213.32l11.73,7.28-4.93-6.81Z"/><path class="cls-6" d="M97.28,215.26,83.12,180l.54-.26L97,204Zm-11.77-30.9,11.08,27.58-.22-7.82Z"/><path class="cls-6" d="M76.68,96.77,63.9,93l4.78-4.72Zm-12-4L75.38,96l-6.71-7.11Z"/><path class="cls-6" d="M84,99.2l-8.33-2.75L67,87.28Zm-8.08-3.06L81.59,98,70,89.88Z"/><circle class="cls-6" cx="83" cy="98.76" r="1.35"/><circle class="cls-6" cx="76.09" cy="96.5" r="1.35"/><circle class="cls-7" cx="64.28" cy="92.92" r="1.35"/><circle class="cls-6" cx="78.88" cy="109.38" r="1.35"/><circle class="cls-6" cx="71.71" cy="115.89" r="1.35"/><circle class="cls-7" cx="69.99" cy="123.72" r="1.35"/><circle class="cls-6" cx="64.81" cy="136.46" r="1.35"/><circle class="cls-6" cx="78.09" cy="131.02" r="1.35"/><circle class="cls-6" cx="81.94" cy="119.74" r="1.35"/><circle class="cls-6" cx="89.77" cy="112.43" r="1.35"/><circle class="cls-6" cx="97.73" cy="120.27" r="1.35"/><circle class="cls-6" cx="102.91" cy="120.27" r="1.35"/><circle class="cls-6" cx="108.49" cy="129.56" r="1.35"/><circle class="cls-6" cx="98.8" cy="129.43" r="1.35"/><circle class="cls-6" cx="86.45" cy="141.11" r="1.35"/><circle class="cls-6" cx="73.57" cy="153.59" r="1.35"/><circle class="cls-7" cx="81.27" cy="159.7" r="1.35"/><circle class="cls-6" cx="94.02" cy="154.39" r="1.35"/><circle class="cls-6" cx="105.7" cy="147.48" r="1.35"/><circle class="cls-6" cx="116.85" cy="134.74" r="1.35"/><circle class="cls-6" cx="125.08" cy="137.66" r="1.35"/><circle class="cls-6" cx="129.07" cy="145.09" r="1.35"/><circle class="cls-6" cx="117.91" cy="151.2" r="1.35"/><circle class="cls-6" cx="123.76" cy="155.98" r="1.35"/><circle class="cls-6" cx="121.1" cy="166.6" r="1.35"/><circle class="cls-6" cx="107.82" cy="162.35" r="1.35"/><circle class="cls-6" cx="111.81" cy="173.24" r="1.35"/><circle class="cls-6" cx="92.16" cy="169.79" r="1.35"/><circle class="cls-6" cx="83.4" cy="179.88" r="1.35"/><circle class="cls-6" cx="95.88" cy="182.53" r="1.35"/><circle class="cls-7" cx="107.56" cy="187.31" r="1.35"/><circle class="cls-6" cx="103.58" cy="193.15" r="1.35"/><circle class="cls-6" cx="83.4" cy="193.15" r="1.35"/><circle class="cls-6" cx="96.67" cy="204.04" r="1.35"/><circle class="cls-6" cx="89.24" cy="213.07" r="1.35"/><circle class="cls-6" cx="96.94" cy="213.6" r="1.35"/><circle class="cls-6" cx="102.51" cy="221.3" r="1.35"/><path class="cls-8" d="M86.15,141.73,81.48,119l17.79,10.22ZM82.33,120.2l4.18,20.36,11.76-11.2Z"/><path class="cls-8" d="M73.49,153.74l0-.18,8.31-33.84.15.17,23.82,27.55-.2,0ZM82,120.22l-8.15,33.21,31.55-6.14Z"/><path class="cls-8" d="M107.66,162.67l-2.2-15.41h.12l24-2.55Zm-1.93-15.19,2.11,14.74L128.77,145Z"/><path class="cls-8" d="M95.78,182.75l-3.6-13.27,0,0,13.74-22.89Zm-3.34-13.23,3.34,12.33,9.45-33.66Z"/><path class="cls-8" d="M103.62,193.48l-11.47-24,.11,0,15.63-7.15,0,.21ZM92.47,169.56l11,23.1,4.1-30Z"/><path class="cls-8" d="M103.66,193.41l-8-11.09,0-.06L106,146.41Zm-7.75-11.14,7.54,10.44,2.2-44.26Z"/><path class="cls-8" d="M108.14,162.67l-34.73-9,.15-.15L86.33,141Zm-34.26-9.14,33.46,8.69-21-20.9Z"/><path class="cls-8" d="M105.75,147.56l0-.09-7-18.06.28.14,30.63,15.37-.4,0Zm-6.63-17.66,6.79,17.4,22.84-2.53Z"/><circle class="cls-8" cx="81.94" cy="119.74" r="1.35"/><circle class="cls-7" cx="98.8" cy="129.43" r="1.35"/><circle class="cls-8" cx="86.45" cy="141.11" r="1.35"/><circle class="cls-8" cx="73.57" cy="153.59" r="1.35"/><circle class="cls-8" cx="105.7" cy="147.48" r="1.35"/><circle class="cls-8" cx="129.07" cy="145.09" r="1.35"/><circle class="cls-8" cx="107.82" cy="162.35" r="1.35"/><circle class="cls-8" cx="92.16" cy="169.79" r="1.35"/><circle class="cls-8" cx="95.88" cy="182.53" r="1.35"/><circle class="cls-8" cx="103.58" cy="193.15" r="1.35"/><circle class="cls-8" cx="89.24" cy="213.07" r="1.35"/><path class="cls-9" d="M84.4,62.13,79.19,52.4l21,3.5Zm-4.77-9.42,4.88,9.12L99.28,56Z"/><path class="cls-9" d="M55.52,65.7l23.94-13.3,5.18,9.69-.17,0Zm23.85-13L56.71,65.31l27.56-3.42Z"/><path class="cls-9" d="M45.48,93.25l-.13-.11L23.14,73.34l.22-.05,32.95-8-.08.21ZM23.64,73.46,45.38,92.85,55.92,65.67Z"/><path class="cls-9" d="M56,65.65l1.65-26.31.15.06L100.14,56l-.38.08Zm1.87-26L56.24,65.35l43.07-9.44Z"/><path class="cls-9" d="M57.24,102l-11.9-8.92L21.17,62.86l.18-.16,36,39.17ZM45.51,93l10.83,8.11L23.48,65.36Z"/><path class="cls-9" d="M68.52,88.77l-.09-.18L55.88,65.33l.26.06,24.32,5.39-.1.15ZM56.34,65.68,68.54,88.3,80.07,70.93Z"/><path class="cls-9" d="M84.6,62.8,75,33.29l8.47-15v.43ZM75.3,33.32l9,27.85-1-42Z"/><path class="cls-9" d="M79.59,52.8l-.24-.14L35.79,26.44,75.26,33.2l0,.08ZM37,26.89,79.24,52.31l-4.17-18.9Z"/><path class="cls-9" d="M75.23,33.44,35.69,26.67l.69-.12,47.24-8ZM37.11,26.67l38,6.51,8.07-14.31Z"/><path class="cls-9" d="M57.7,39.63,10.07,22.27l.06-.23,26.33,4.53L57.8,39.41ZM11.4,22.5,56.62,39,36.36,26.78Z"/><path class="cls-9" d="M84.09,62.26l.27-.35,24.58-31.23L99.82,56l0,0ZM108.22,32,84.83,61.71l14.81-5.86Z"/><path class="cls-9" d="M80.39,71l-.14,0L20.49,62.8l.75-.13L79.53,52.42ZM22,62.77l58.1,7.95-.84-18Z"/><path class="cls-9" d="M56.32,65.64l-.21,0-35-2.73.06-.15L36.39,26.39l.12.23Zm-34.88-3,34.47,2.69L36.41,27Z"/><path class="cls-9" d="M80.29,71.08l-.12-.17L57.08,38.81,84.61,62l0,.08ZM58.4,40.22,80.25,70.62,84.31,62Z"/><path class="cls-9" d="M84.67,62.18l-14-4.79,7.8-9.85ZM71,57.28l13.19,4.51L78.39,48Z"/><path class="cls-9" d="M125.07,21.73l17.71-12,5.74,9.63-.19,0ZM142.7,10.11,126,21.39l22.13-2.19Z"/><path class="cls-9" d="M79.26,52.82l0-.27,4-34,.15.08,25.36,12.72ZM83.5,18.89,79.56,52.3l28.79-20.95Z"/><path class="cls-9" d="M73.41,153.74l0-.18,8.42-34.08.15.18,23.9,27.9-.2,0ZM82,120l-8.26,33.45,31.74-6Z"/><path class="cls-9" d="M111.73,173.44l0-.17L105.46,147l15.81,19.63-.1.07ZM105.94,148,111.88,173l9-6.46Z"/><path class="cls-9" d="M103.69,193.7l-.18-.12L83.39,180.26l.07-.1,22.38-33.1Zm-20-13.51,19.75,13.08,2.09-45.37Z"/><path class="cls-9" d="M122.11,167l-17.22-5.22-14.26-12.5ZM105,161.61l15.07,4.56L92.51,150.65Z"/><path class="cls-9" d="M112.34,173.91,97.08,159.55l8,2.06,0,0ZM97.93,160l13.35,12.55-6.39-10.75Z"/><path class="cls-9" d="M111.89,173.52l-.17-.2L91.19,149.73l22.75,7.63v.1ZM91.94,150.23,111.72,173l1.95-15.44Z"/><path class="cls-9" d="M103.64,193.67l-.12-.08L82.7,179.69l.27-.06,29-6.56ZM83.3,179.8l20.23,13.51,8.09-19.9Z"/><path class="cls-9" d="M112.13,173.54,73,153.44l27.7,1.49,0,.05Zm-38-19.8,37.36,19.2-10.9-17.77Z"/><path class="cls-9" d="M89.33,213.4l-.2-.12L117.81,151l.22.09L104.2,193Zm27.81-60.34L89.85,212.28,104,192.83Z"/><path class="cls-9" d="M108.55,159.65l-3-12.34.2.06L118.16,151Zm-2.69-12,2.82,11.55,9-8.07Z"/><path class="cls-9" d="M118,151.11h-.34l-26.17-1,0-.08-9.76-30.65Zm-26.33-1.25,25.67,1L82.18,120.11Z"/><path class="cls-9" d="M89.35,213.37l-.23-.05,8.29-53.68,7.71,2,0,.12Zm8.25-53.43-8,51.76,15.2-49.89Z"/><path class="cls-6" d="M165.39,44.33l9-11.63-.29,8.72ZM174,33.92l-7.47,9.62,7.23-2.41Z"/><path class="cls-6" d="M180,43.31l-6.3-1.89.19-9Zm-5.9-2.18,5.07,1.52-4.92-8.77Z"/><path class="cls-6" d="M173.24,46.25l.53-5.24,6.66,2.09Zm.88-4.71-.41,4.08,5.6-2.45Z"/><path class="cls-6" d="M181.7,57.93,172.86,50l10.19-4.42Zm-8.11-7.78,7.79,7,1.2-10.87Z"/><path class="cls-6" d="M176.82,67.61,166,57.48l10.05.17ZM167,57.89l9.32,8.73L175.68,58Z"/><path class="cls-6" d="M165.81,66.95l.52-9.46,10.15-.09Zm.89-9.06L166.26,66l9.16-8.2Z"/><path class="cls-6" d="M165.31,66.68l16.56-10-5,9.92Zm15.58-8.95-14.14,8.54,9.87-.07Z"/><path class="cls-6" d="M181.21,59l-2-16.6L183,45.86ZM179.73,43.4l1.51,12.5L182.61,46Z"/><path class="cls-6" d="M195.19,54.81l-12.71-8.87,7.35-5.65Zm-12-8.89,11.22,7.83-4.73-12.82Z"/><path class="cls-6" d="M195.84,63,189,55l6-1.31Zm-6.13-7.79,5.62,6.57-.72-7.65Z"/><path class="cls-6" d="M193.82,68.62l1.34-7,5.95.59Zm1.66-6.56-1.05,5.49,5.73-5Z"/><path class="cls-6" d="M180.85,57.74l9.12-18-.57,15.93Zm8.66-16.23L181.6,57.15,189,55.32Z"/><path class="cls-6" d="M191.1,33.46l-8.32-3.59,9.47-5Zm-7.4-3.62,7.08,3.05,1-7.32Z"/><path class="cls-6" d="M191.48,25.47l8.09-8.8,6,7.09Zm8.07-8.19-7,7.67,12.24-1.48Z"/><path class="cls-6" d="M197,37.53l-6.38-4.35,6.67-4.78Zm-5.68-4.36,5.31,3.62.24-7.6Z"/><path class="cls-6" d="M196.6,29.45l2.8-13.1,6.33,7.07Zm3.14-11.83-2.25,10.53,7.33-4.85Z"/><path class="cls-6" d="M218.33,26.41l-13.57-3,10.18-6.5Zm-12.54-3.15,11.92,2.61-3-8.32Z"/><path class="cls-6" d="M205.23,23.61l-6.12-6.84,16.8.28ZM200,17.18l5.29,5.91,9.23-5.66Z"/><path class="cls-6" d="M211.29,32.15l-8.94-2,2.88-7.21Zm-8.4-2.3,7.52,1.7-5.1-7.77Z"/><path class="cls-6" d="M221.11,34.65l-10.7-2.71,7.7-6.14Zm-9.82-2.9,9.21,2.33-2.58-7.62Z"/><path class="cls-6" d="M189.18,41.14,197.28,28l-.44,9Zm7.63-11.58-6.5,10.53,6.15-3.31Z"/><path class="cls-6" d="M212.87,44.75l-12.68-2,3.7-7.26Zm-12.07-2.3,11,1.72-7.76-8Z"/><path class="cls-6" d="M212.18,44.93l-2-13.62,10.95,2.95Zm-1.48-13.08L212.44,44l8-9.51Z"/><path class="cls-6" d="M203.75,52.75V35.45l7.06-4.32Zm.4-17.07V50.25L210.09,32Z"/><path class="cls-6" d="M203.77,51.76,189,40.31,201,42ZM190.45,40.91l12.61,9.79-2.33-8.32Z"/><path class="cls-6" d="M204.31,61.76l-9.94-8L203.6,51l0,.25ZM195.2,54l8.65,6.92-.62-9.39Z"/><path class="cls-6" d="M205.29,68.91l-1.18-7.37L210.3,61Zm-.72-7,.94,5.91,4-6.38Z"/><path class="cls-6" d="M209.92,61.56,203,51l12.82,1.27Zm-6.11-10.09,6.11,9.35,5.24-8.23Z"/><path class="cls-6" d="M215,52.69l12.71-12.85L225,51.55Zm12-11.57L216,52.16l8.59-1Z"/><path class="cls-6" d="M215.52,53l-3.44-8.61,9.18-10.91Zm-3-8.54,2.93,7.32,4.88-16.59Z"/><path class="cls-6" d="M220.3,56l-5.35-3.71,10.4-1.19ZM216,52.56l4.21,2.92,4-3.86Z"/><path class="cls-6" d="M212.73,69.86l-3.23-9L221,60.75Zm-2.39-8.37L213,68.72l6.64-7.35Z"/><path class="cls-6" d="M223.51,69l-3-8.4,11.24-.29Zm-2.43-8,2.59,7.27,7.15-7.52Z"/><path class="cls-6" d="M231.3,60.87l-7-9.91,11.06,3.88Zm-6-9.12,6,8.41,3.41-5.12Z"/><path class="cls-6" d="M212.32,69.53,220.74,61l3.14,7.57Zm8.28-7.86L213.36,69l9.95-.86Z"/><path class="cls-6" d="M222.58,77.5l.85-9.52,9.8,7.39Zm1.19-8.77L223,77l9.26-1.85Z"/><path class="cls-6" d="M244.6,51,226.83,40.42l14.43-4.72ZM227.79,40.53,244,50.16l-3-13.94Z"/><path class="cls-6" d="M241.47,36.19l-21-1.65,11.41-15.68Zm-20.3-2,19.59,1.54-9-16.13Z"/><path class="cls-6" d="M240.58,36.46l7.29-17.11L265,28Zm7.59-16.29-6.51,15.28,21.8-7.52Z"/><path class="cls-6" d="M260.37,71.29l-19.9-35.88,17.66,6.45V42Zm-18.6-34.77,17.8,32.09-2-26.33Z"/><path class="cls-6" d="M231.87,19.43l-.12-.38,15.45-6.66h.05l10.46,1.2Zm15.39-6.63-13.38,5.77,21.45-4.84Z"/><path class="cls-6" d="M266.07,29.27,247.74,20l-.9-8.11Zm-17.77-9.7,14.06,7.15L247.61,13.35Z"/><path class="cls-6" d="M264.35,28.65l-8.1-15.08,10.34-5,0,.36Zm-7.55-14.91,7.3,13.59,2-18.12Z"/><path class="cls-6" d="M310.48,39.53,241.1,36.26l0-.59,46.55-5.85.07,0Zm-65.89-3.7,62.59,2.95-19.63-8.35Z"/><path class="cls-6" d="M227.31,40.75l-6.85-6.43L249.12,19Zm-6.17-6.34,6.16,5.79,19.62-19.62Z"/><path class="cls-6" d="M243.54,59.93l.57-9.48.09-.05,14.57-9.14Zm1-9.25-.49,8,12.92-15.84Z"/><path class="cls-6" d="M235.21,54.68l5.94-19.52,3.11,14.71Zm5.87-17.92-5.21,17.12,7.94-4.22Z"/><path class="cls-6" d="M239.07,66.75l-8-6.18,4.6-6.75Zm-7.51-6.27,6.82,5.24-2.92-11Z"/><path class="cls-6" d="M226.3,87.81l-5.41-5.41,12.39-7.69Zm-4.78-5.34,4.68,4.68,6-11.32Z"/><path class="cls-6" d="M232.61,75.84l-1.56-15.75,7.95,6.1ZM231.54,61l1.36,13.72,5.56-8.41Z"/><path class="cls-6" d="M248.43,70.69l-.06-.12-5.6-12,17.83,11.6Zm-4.71-11.08,5,10.67,10.67-.5Z"/><path class="cls-6" d="M250.93,85.24l-10.88-5-1.76-15.29Zm-10.33-5.4,8.77,4L239.18,67.52Z"/><path class="cls-6" d="M250.53,85.73,238,65.69l11.33,3.78Zm-11.11-19,10.34,16.6-1-13.47Z"/><path class="cls-6" d="M259.15,70.9l9.45-15.18.05,0,20-9.42ZM268.87,56,260.8,69,286,48Z"/><path class="cls-6" d="M234.72,100.81l-.14-.22-8.72-13.35,19.39,1.66Zm-8.08-13.11,8.13,12.45,9.65-10.93Z"/><path class="cls-6" d="M245.71,90.37l-14-16,8.77,5.54,0,0Zm-11.9-14.21L244,87.77l-3.79-7.59Z"/><path class="cls-6" d="M248.23,104.58,244.57,88.8l9.3,2.26-.09.22ZM245.1,89.34l3.24,14,5-12Z"/><path class="cls-6" d="M236.19,109l-1.7-8.78,14.44,3.68ZM235,100.76l1.49,7.69L247.65,104Z"/><path class="cls-6" d="M220.71,35l-3.06-9,14.73-7.54Zm-2.33-8.74,2.52,7.43,9.6-13.63Z"/><path class="cls-6" d="M279.26,19.74l-13.8-11.5,19.41.14ZM267.12,8.85l11.94,9.95L283.91,9Z"/><path class="cls-6" d="M287.47,30.71,284.14,8.37l13.27,5.17-.12.2ZM284.63,9l3.06,20.54,9.13-15.79Z"/><path class="cls-6" d="M309.16,39.93l-.36-.25L278.87,18.59,306.55,16l0,.2ZM280,18.88l28.69,20.21L306.19,16.4Z"/><path class="cls-6" d="M268.38,56.76l-4.72-28.87,16.1-9.58ZM264.1,28.08,268.49,55l10.6-35.81Z"/><path class="cls-6" d="M298.83,57.38l-12-10.54v-.09l.55-17.57ZM287.27,46.66,297.83,56,287.75,31.07Z"/><path class="cls-6" d="M265.84,87.19l-16-2.49L260,69.5Zm-15.35-2.79,14.77,2.29-5.35-16.3Z"/><path class="cls-6" d="M273.29,73.08l-14-3.09,40.58-14.05ZM260.7,69.91l12.51,2.75L296.83,57.4Z"/><path class="cls-6" d="M291.66,74.44l-18.56-1.39,0-.13-5-17.61ZM273.4,72.68l17,1.27L268.8,56.42Z"/><path class="cls-6" d="M274.53,91.24,265.27,87l8.14-14.87Zm-8.7-4.39,8.27,3.76-1-17Z"/><path class="cls-6" d="M306.37,16.39h0L295.85,14l23.32-.85.05.39ZM299,14.33,306.37,16,317,13.67Z"/><path class="cls-6" d="M308.34,40.54l10.13-28.22,2,13.35Zm10-26.6L309.5,38.48,320,25.55Z"/><path class="cls-6" d="M337,33,317.49,12.63l15.75,3.44ZM319.28,13.63,335.92,31l-3.18-14.44Z"/><path class="cls-6" d="M350.65,28.06l-.25-.16L331.63,15.47l21,2.8Zm-17.36-12L350.38,27.4l1.76-8.79Z"/><path class="cls-6" d="M348.52,33.52l-13-1.44,15.56-5.48Zm-11.19-1.64,10.93,1.21,2.19-5.83Z"/><path class="cls-6" d="M368.32,23.43l-.07,0-17.55-5.27,25.56,1.47Zm-14.27-4.7L368.29,23l6.41-3.08Z"/><path class="cls-6" d="M355.5,28l12.89-5,2.93,4.69Zm12.72-4.49-10.48,4,12.86-.24Z"/><path class="cls-6" d="M357,28l-6.41-.87,1.75-9.32ZM351,26.77l5.28.72-3.84-8.39Z"/><path class="cls-6" d="M355.31,38.87l1.17-11.66,4.66,6.12Zm1.46-10.61-1,9.58,4.79-4.55Z"/><path class="cls-6" d="M363.31,47l-6.94-19.42,12.21-4.72Zm-6.43-19.19,6.34,17.75L368,23.54Z"/><path class="cls-6" d="M363.57,46.93l-8.3-8.58.14-.14,5.58-5.3Zm-7.73-8.57,7.1,7.35-2.2-12Z"/><path class="cls-6" d="M333.6,41.13l-14-16,17.14,6.74-.06.18Zm-12.66-15,12.51,14.26,2.75-8.25Z"/><path class="cls-6" d="M344.31,60.78,332.88,40.2l13.72,4.86ZM334.16,41.29,344,58.94l2-13.49Z"/><path class="cls-6" d="M314.39,75.37l-5.82-36.8,9.76,15.67Zm-5.12-34.92L314.42,73l3.49-18.7Z"/><path class="cls-6" d="M327.62,65.13,317.56,54l26.82,5.87Zm-8.93-10.52,9.06,10.07,15.1-4.78Z"/><path class="cls-6" d="M336.67,65.65l-9.24-.56,6.16-25.47Zm-8.74-.93,8.29.5-2.76-23.35Z"/><path class="cls-6" d="M342.15,73.94l-6-8.55,7.69-6Zm-5.44-8.47,5.17,7.38,1.48-12.55Z"/><path class="cls-6" d="M334.9,91.33,327.21,64l10,12.82Zm-6.76-25.5,6.65,23.63,2-12.56Z"/><path class="cls-6" d="M321.76,95.56l-.11-.32L314.11,74l24.06,3ZM314.7,74.44l7.21,20.35,15.46-17.52Z"/><path class="cls-6" d="M314.86,74.4H291.27l7.13-17.56Zm-23-.4h22.08l-15.4-16.43Z"/><path class="cls-6" d="M322.63,95.48l-24.57-3.31-6.9-18.5Zm-24.28-3.68L321,94.87,292,74.72Z"/><path class="cls-6" d="M321.64,101.81l-19.31-1.14-4.54-9.09Zm-19.06-1.52,16.8,1-20.76-8.9Z"/><path class="cls-6" d="M307.93,102.89l14.19-8.11-1.45,7Zm13.62-7.32-11.83,6.76,10.62-1Z"/><path class="cls-6" d="M327.24,109.71l-14.6-1.24L308,101.95ZM313,107.9l10.36.88-13.67-5.51Z"/><path class="cls-6" d="M320.25,114.92l-7.9-6.73,8.49-7.32Zm-7-6.73,6.44,5.48.48-11.44Z"/><path class="cls-6" d="M311.21,119.87l-2.71-18,4.51,6.32Zm-2.07-16.47,2.07,13.81,1.38-9Z"/><path class="cls-6" d="M318,128.55l-7-10v-.08l1.74-11.34Zm-6.61-10.05,5.72,8.1-4.29-17.39Z"/><path class="cls-6" d="M286.57,103.46l-11.65-2.27-.85-10.8Zm-11.28-2.61,10.12,2L274.55,91.47Z"/><path class="cls-6" d="M289.19,120.31l-6.88-4.87L286,102.25Zm-6.42-5,5.86,4.15L285.95,104Z"/><path class="cls-6" d="M282.62,115.94,274.88,101l.06-.1L292,73.09ZM275.33,101l7.13,13.75,8.66-39.47Z"/><path class="cls-6" d="M286,103.42,274.37,90.71l24.33,1.11ZM275.31,91.15,286,102.86l11.71-10.69Z"/><circle class="cls-9" cx="84.46" cy="61.98" r="1.88"/><circle class="cls-9" cx="23.39" cy="73.4" r="1.77"/><circle class="cls-9" cx="81.94" cy="119.74" r="1.01"/><circle class="cls-9" cx="73.57" cy="153.59" r="1.01"/><path class="cls-9" d="M122.11,166.6a1.11,1.11,0,0,1-1,1,1,1,0,0,1,0-2A1.11,1.11,0,0,1,122.11,166.6Z"/><path class="cls-9" d="M119.9,151.09a2.18,2.18,0,0,1-2,2,2,2,0,0,1,0-4A2.18,2.18,0,0,1,119.9,151.09Z"/><path class="cls-9" d="M91.29,213.33a2.26,2.26,0,0,1-2.05,2.05,2.05,2.05,0,1,1,0-4.11A2.26,2.26,0,0,1,91.29,213.33Z"/><path class="cls-9" d="M109.29,159.56a.74.74,0,0,1-.67.67.67.67,0,1,1,0-1.34A.74.74,0,0,1,109.29,159.56Z"/><path class="cls-9" d="M105.77,161.86a.74.74,0,0,1-.67.67.67.67,0,0,1,0-1.34A.74.74,0,0,1,105.77,161.86Z"/><path class="cls-9" d="M98,159.92a.74.74,0,0,1-.67.67.67.67,0,1,1,0-1.34A.74.74,0,0,1,98,159.92Z"/><path class="cls-9" d="M92.23,150.12a.74.74,0,0,1-.67.67.67.67,0,0,1,0-1.34A.74.74,0,0,1,92.23,150.12Z"/><circle class="cls-9" cx="111.81" cy="173.24" r="1.01"/><circle class="cls-9" cx="103.58" cy="193.15" r="1.35"/><circle class="cls-9" cx="79.41" cy="52.56" r="1.63"/><circle class="cls-9" cx="99.73" cy="55.94" r="1.35"/><circle class="cls-9" cx="105.7" cy="147.48" r="2.01"/><path class="cls-9" d="M57.46,65.5a1.68,1.68,0,0,1-1.35,1.35,1.35,1.35,0,1,1,1.35-1.35Z"/><circle class="cls-9" cx="21.26" cy="62.78" r="1.01"/><circle class="cls-9" cx="45.43" cy="93.05" r="1.78"/><circle class="cls-9" cx="83.4" cy="179.88" r="1.35"/><circle class="cls-9" cx="108.58" cy="31.34" r="1.01"/><circle class="cls-9" cx="80.27" cy="70.85" r="1.01"/><circle class="cls-9" cx="10.11" cy="22.16" r="1.01"/><circle class="cls-9" cx="125.53" cy="21.56" r="1.01"/><circle class="cls-9" cx="148.32" cy="19.3" r="1.01"/><circle class="cls-9" cx="142.74" cy="9.94" r="1.01"/><circle class="cls-9" cx="75.17" cy="33.31" r="1.01"/><circle class="cls-9" cx="83.4" cy="18.7" r="1.01"/><circle class="cls-9" cx="36.4" cy="26.67" r="1.01"/><circle class="cls-9" cx="57.91" cy="39.02" r="1.01"/><circle class="cls-9" cx="70.65" cy="57.34" r="0.83"/><circle class="cls-9" cx="78.42" cy="47.58" r="0.83"/><circle class="cls-9" cx="87.18" cy="58.73" r="0.83"/><circle class="cls-9" cx="74.24" cy="53.35" r="0.83"/><circle class="cls-9" cx="79.78" cy="60.32" r="0.83"/><circle class="cls-9" cx="56.51" cy="56.74" r="0.83"/><circle class="cls-9" cx="74.04" cy="61.72" r="0.83"/><circle class="cls-9" cx="28.83" cy="72.27" r="0.83"/><circle class="cls-9" cx="91.76" cy="52.76" r="0.83"/><circle class="cls-9" cx="68.53" cy="88.54" r="1.01"/><circle class="cls-9" cx="57.31" cy="101.95" r="1.01"/><circle class="cls-6" cx="166.02" cy="66.7" r="1.35"/><circle class="cls-6" cx="166.51" cy="58" r="1.35"/><circle class="cls-6" cx="175.8" cy="58" r="1.35"/><circle class="cls-7" cx="176.6" cy="66.76" r="1.35"/><circle class="cls-6" cx="181.38" cy="57.47" r="1.35"/><circle class="cls-6" cx="189.34" cy="55.35" r="1.35"/><circle class="cls-6" cx="195.43" cy="62.08" r="1.35"/><circle class="cls-6" cx="200.64" cy="62.76" r="1.35"/><circle class="cls-6" cx="194.12" cy="68.09" r="1.35"/><circle class="cls-6" cx="173.41" cy="50.3" r="1.35"/><circle class="cls-6" cx="182.97" cy="46.05" r="1.35"/><circle class="cls-6" cx="173.68" cy="45.79" r="1.35"/><circle class="cls-6" cx="173.94" cy="41.27" r="1.35"/><circle class="cls-6" cx="166.11" cy="43.83" r="1.35"/><circle class="cls-6" cx="174.21" cy="33.31" r="1.35"/><circle class="cls-6" cx="179.52" cy="43.13" r="1.35"/><circle class="cls-6" cx="189.61" cy="40.74" r="1.35"/><circle class="cls-6" cx="200.76" cy="42.34" r="1.35"/><circle class="cls-6" cx="203.68" cy="51.36" r="1.35"/><circle class="cls-6" cx="194.92" cy="54.28" r="1.35"/><circle class="cls-6" cx="204.48" cy="61.72" r="1.35"/><circle class="cls-6" cx="209.79" cy="61.19" r="1.35"/><circle class="cls-6" cx="212.97" cy="69.42" r="1.35"/><circle class="cls-6" cx="223.62" cy="68.65" r="1.35"/><circle class="cls-7" cx="205.54" cy="68.36" r="1.35"/><circle class="cls-6" cx="215.55" cy="52.71" r="1.35"/><circle class="cls-7" cx="220.23" cy="55.75" r="1.35"/><circle class="cls-6" cx="224.92" cy="51.63" r="1.35"/><circle class="cls-7" cx="231.03" cy="60.66" r="1.35"/><circle class="cls-6" cx="220.41" cy="61.19" r="1.35"/><circle class="cls-6" cx="203.94" cy="35.96" r="1.35"/><circle class="cls-6" cx="210.58" cy="31.71" r="1.35"/><circle class="cls-6" cx="202.88" cy="29.86" r="1.35"/><circle class="cls-6" cx="205.01" cy="23.48" r="1.35"/><circle class="cls-6" cx="197.04" cy="29.06" r="1.35"/><circle class="cls-6" cx="196.78" cy="37.02" r="1.35"/><circle class="cls-6" cx="190.93" cy="33.04" r="1.35"/><circle class="cls-6" cx="183.23" cy="30.12" r="1.35"/><circle class="cls-6" cx="192" cy="25.63" r="1.35"/><circle class="cls-6" cx="199.7" cy="17.13" r="1.35"/><circle class="cls-6" cx="215.1" cy="17.11" r="1.35"/><circle class="cls-6" cx="217.75" cy="26.14" r="1.35"/><circle class="cls-7" cx="231.54" cy="19.14" r="1.35"/><circle class="cls-7" cx="248.02" cy="20.03" r="1.35"/><circle class="cls-6" cx="247.06" cy="12.78" r="1.35"/><circle class="cls-6" cx="256.43" cy="13.66" r="1.35"/><circle class="cls-6" cx="241.38" cy="35.96" r="1.35"/><circle class="cls-6" cx="220.67" cy="34.37" r="1.35"/><circle class="cls-6" cx="212.44" cy="44.19" r="1.35"/><circle class="cls-6" cx="227.31" cy="40.74" r="1.35"/><circle class="cls-6" cx="235.28" cy="55.08" r="1.35"/><circle class="cls-6" cx="244.3" cy="50.57" r="1.35"/><circle class="cls-6" cx="243.51" cy="59.59" r="1.35"/><circle class="cls-6" cx="248.82" cy="69.95" r="1.35"/><circle class="cls-6" cx="238.99" cy="66.23" r="1.35"/><circle class="cls-6" cx="240.46" cy="80.02" r="1.35"/><circle class="cls-7" cx="249.88" cy="84.82" r="1.35"/><circle class="cls-6" cx="265.81" cy="86.94" r="1.35"/><circle class="cls-7" cx="273.51" cy="72.87" r="1.35"/><circle class="cls-6" cx="259.71" cy="69.95" r="1.35"/><circle class="cls-6" cx="268.73" cy="56.14" r="1.35"/><circle class="cls-6" cx="257.85" cy="42.34" r="1.35"/><circle class="cls-6" cx="263.95" cy="28.26" r="1.35"/><circle class="cls-6" cx="266.2" cy="8.73" r="1.35"/><circle class="cls-6" cx="284.38" cy="8.88" r="1.35"/><circle class="cls-7" cx="279.33" cy="18.97" r="1.35"/><circle class="cls-6" cx="287.56" cy="30.12" r="1.35"/><circle class="cls-6" cx="297.14" cy="13.92" r="1.35"/><circle class="cls-6" cx="306.44" cy="16.31" r="1.35"/><circle class="cls-6" cx="318.92" cy="13.39" r="1.35"/><circle class="cls-7" cx="332.99" cy="16.31" r="1.35"/><circle class="cls-6" cx="336.18" cy="31.98" r="1.35"/><circle class="cls-6" cx="348.2" cy="33.2" r="1.35"/><circle class="cls-6" cx="350.78" cy="27.47" r="1.35"/><circle class="cls-6" cx="356.89" cy="28.26" r="1.35"/><circle class="cls-6" cx="355.29" cy="38.11" r="1.35"/><circle class="cls-7" cx="362.99" cy="46.87" r="1.35"/><circle class="cls-6" cx="360.85" cy="33.29" r="1.35"/><circle class="cls-6" cx="370.69" cy="28" r="1.35"/><circle class="cls-6" cx="368.3" cy="23.22" r="1.35"/><circle class="cls-6" cx="375.21" cy="19.77" r="1.35"/><circle class="cls-6" cx="352.11" cy="18.17" r="1.35"/><circle class="cls-6" cx="333.52" cy="40.21" r="1.35"/><circle class="cls-6" cx="346" cy="45.52" r="1.35"/><circle class="cls-6" cx="343.88" cy="59.86" r="1.35"/><circle class="cls-6" cx="336.44" cy="65.7" r="1.35"/><circle class="cls-6" cx="342.28" cy="73.67" r="1.35"/><circle class="cls-6" cx="327.68" cy="64.37" r="1.35"/><circle class="cls-6" cx="337.5" cy="77.38" r="1.35"/><circle class="cls-6" cx="335.11" cy="90.4" r="1.35"/><circle class="cls-6" cx="321.57" cy="95.44" r="1.35"/><circle class="cls-6" cx="320.78" cy="101.55" r="1.35"/><circle class="cls-6" cx="325.02" cy="109.78" r="1.35"/><circle class="cls-6" cx="320.47" cy="114.86" r="1.35"/><circle class="cls-6" cx="313.08" cy="108.45" r="1.35"/><circle class="cls-6" cx="317.86" cy="126.77" r="1.35"/><circle class="cls-6" cx="311.22" cy="118.28" r="1.35"/><circle class="cls-6" cx="308.79" cy="102.61" r="1.35"/><circle class="cls-6" cx="302.72" cy="100.24" r="1.35"/><circle class="cls-6" cx="298.74" cy="92.28" r="1.35"/><circle class="cls-6" cx="286.26" cy="103.69" r="1.35"/><circle class="cls-6" cx="282.54" cy="115.35" r="1.35"/><circle class="cls-6" cx="288.65" cy="119.6" r="1.35"/><circle class="cls-7" cx="275.37" cy="100.75" r="1.35"/><circle class="cls-6" cx="274.57" cy="90.93" r="1.35"/><circle class="cls-6" cx="253.6" cy="91.46" r="1.35"/><circle class="cls-6" cx="248.02" cy="103.96" r="1.35"/><circle class="cls-6" cx="236.6" cy="108.21" r="1.35"/><circle class="cls-7" cx="234.75" cy="101.02" r="1.35"/><circle class="cls-6" cx="226.51" cy="87.74" r="1.35"/><circle class="cls-6" cx="221.2" cy="82.43" r="1.35"/><circle class="cls-6" cx="222.96" cy="77.21" r="1.35"/><circle class="cls-6" cx="232.89" cy="75.53" r="1.35"/><circle class="cls-6" cx="244.57" cy="89.33" r="1.35"/><circle class="cls-6" cx="291.57" cy="74.2" r="1.35"/><circle class="cls-6" cx="314.67" cy="74.73" r="1.35"/><circle class="cls-7" cx="318.12" cy="54.55" r="1.35"/><circle class="cls-6" cx="298.21" cy="56.94" r="1.35"/><circle class="cls-6" cx="308.83" cy="39.68" r="1.35"/><circle class="cls-7" cx="320.24" cy="25.61" r="1.35"/><circle class="cls-6" cx="287.32" cy="47.11" r="1.35"/><path class="cls-6" d="M175,86.44,165.27,65.9l5.79,4.48Zm-8.67-19.2,7.34,15.48-3-12.1Z"/><path class="cls-6" d="M163.89,77.62l6.9-7.31h.07l21.25-2.41ZM171,70.68l-5.69,6,23.27-8Z"/><path class="cls-6" d="M173.12,85.54l17.44-17.77-.43,7.6Zm17-16.73-14.53,14.8,14.17-8.47Z"/><path class="cls-6" d="M156.6,86.79l7.93-10,10.59,8Zm8-9.21L158,86l15.61-1.68Z"/><path class="cls-6" d="M203.21,80.69l1.52-5.88,11.11,3.7Zm1.8-5.37-1.26,4.87,10.47-1.8Z"/><path class="cls-6" d="M221.32,82.53l-6.85-4.2L223.08,77Zm-5.72-4,5.49,3.37,1.42-4.43Z"/><path class="cls-6" d="M212,91.08l-.14-.16L202.4,80l19.26,2.09Zm-8.66-10.59,8.69,10,8.69-8.13Z"/><path class="cls-6" d="M215.16,106l6-24.47,7.26,22.4Zm6.07-23-5.54,22.53,12.22-1.91Z"/><path class="cls-6" d="M198.21,109.56l14-19.48,3.6,15.88ZM211.9,91.51l-12.31,17.16,15.48-3.17Z"/><path class="cls-6" d="M192.6,88.15l-2.94-13.21,13.63,5.24Zm-2.39-12.57,2.64,11.88,9.62-7.17Z"/><path class="cls-6" d="M168.35,99.06,154,96.32,157.19,86Zm-13.81-3,12.77,2.44-10-11.64Z"/><path class="cls-6" d="M174,113.79l-20.16-6.72.21-11.34Zm-19.75-7,18.08,6-17.89-16.2Z"/><path class="cls-6" d="M173.37,114.3l-5.75-15.55,0-.07,6.93-15.1ZM168,98.77l5,13.52,1.06-26.72Z"/><path class="cls-6" d="M165,122.53l-11.71-16.18,20.44,6.81Zm-10.14-15,10.2,14.09,7.6-8.16Z"/><path class="cls-6" d="M164.51,122.34l8.67-9.31,8.89,6.77Zm8.72-8.77-7.66,8.22,15.5-2.24Z"/><path class="cls-6" d="M199.21,109.48l-13.32-6.24,6.87-16ZM186.41,103l12.17,5.71-5.9-20.35Z"/><path class="cls-6" d="M181.69,120l-8.8-6.71,13.62-10.69Zm-8.15-6.71,7.93,6,4.34-15.66Z"/><path class="cls-6" d="M186.19,103.57,173.94,84.3,193,87.65ZM174.76,84.85l11.36,17.87L192.44,88Z"/><path class="cls-6" d="M189.23,125.27,181,119.65l18.79-11.45Zm-7.11-5.59,6.93,4.74L198,110Z"/><path class="cls-6" d="M187.28,132.53l1.7-7.88h.17l17.52.84Zm2-7.47-1.48,6.85,16.85-6.11Z"/><path class="cls-6" d="M220.3,114.1,215,105.37,238,113Zm-4.42-8,4.63,7.6,15.38-.93Z"/><path class="cls-6" d="M237.21,113.47l-10-10.5,9.36,5Zm-8-9,7.48,7.82-.51-4.08Z"/><path class="cls-6" d="M240.08,125.66l-3.38-12.9,10.15-3ZM237.18,113l3,11.4,6-14Z"/><path class="cls-6" d="M205.55,126.13l-7.14-17.43,22.68,5Zm-6.15-16.6,6.4,15.63,13.94-11.11Z"/><path class="cls-6" d="M224.78,129.59l-4.88-16.32,21,11.87Zm-3.88-15.07,4.28,14.34L239.35,125Z"/><path class="cls-6" d="M229.44,137.56,204.62,126l36.19-1.26ZM207.12,126.5l22.17,10.33,10.15-11.46Z"/><path class="cls-6" d="M232,156.3l-11.83-16.69,0-.1L225,128.62Zm-11.38-16.74,10.47,14.77-6.17-24.5Z"/><path class="cls-6" d="M242,165.22l-5.77-8.34,7.7-7.06Zm-5.25-8.28,5,7.2,1.66-13.28Z"/><path class="cls-6" d="M235.51,172.2l.86-15.88,5.8,8.37Zm1.19-14.7L236,171.09l5.69-6.43Z"/><path class="cls-6" d="M194.22,142.58l-.07-.1-7-10.57.48.11,34,7.63ZM188,132.52l6.43,9.64,24.77-2.65Z"/><path class="cls-6" d="M207.08,150.3l-13-7.87,12-16.78Zm-12.47-8,12,7.26-1-22.75Z"/><path class="cls-6" d="M214.92,159.71l-8.34-9.8,14.18-10.85ZM207.15,150l7.59,8.92,5.31-18.78Z"/><path class="cls-6" d="M223.66,161.81l-10.09-2.52,19.26-4.59Zm-7.57-2.51,7.43,1.86,6.76-5.24Z"/><path class="cls-6" d="M220,172.57l3.5-11.59,3.5,6.34-.14.1ZM223.65,162l-2.87,9.52,5.75-4.31Z"/><path class="cls-6" d="M195.34,152l-1.27-10,13.37,8.06Zm-.77-9.2,1.12,8.75,10.61-1.68Z"/><path class="cls-6" d="M216.7,159.71l-25.49-1.54,4.17-6.81Zm-24.46-2.07L213,158.89l-17.32-6.79Z"/><path class="cls-6" d="M222.27,172.63l-25.76-3.9-5.41-11.47Zm-25.35-4.44,21.64,3.27-26.18-12.91Z"/><path class="cls-6" d="M196.3,176.89l.21-8.71,13.18,4.89Zm.6-8.15-.19,7.62,11.7-3.34Z"/><path class="cls-6" d="M213.2,184.65l-4.42-11.79,12-1.05Zm-3.86-11.44,3.94,10.52L220,172.28Z"/><path class="cls-6" d="M202,187.82l-5.91-11.61,17.73,8Zm-5-10.78,5.24,10.3,10.49-3.18Z"/><path class="cls-6" d="M208.52,174.51l-1.9-25.14,8.24,9.3Zm-1.41-24,1.68,22.25,5.61-14Z"/><circle class="cls-6" cx="170.88" cy="70.49" r="1.35"/><circle class="cls-6" cx="164.65" cy="77.19" r="1.35"/><circle class="cls-6" cx="157.27" cy="86.65" r="1.35"/><circle class="cls-6" cx="154.26" cy="96.12" r="1.35"/><circle class="cls-6" cx="154.03" cy="106.73" r="1.35"/><circle class="cls-6" cx="165.11" cy="121.74" r="1.35"/><circle class="cls-6" cx="181.73" cy="119.66" r="1.35"/><circle class="cls-6" cx="189.35" cy="124.74" r="1.35"/><circle class="cls-7" cx="187.97" cy="131.9" r="1.35"/><circle class="cls-6" cx="194.43" cy="142.51" r="1.35"/><circle class="cls-6" cx="195.35" cy="151.75" r="1.35"/><circle class="cls-6" cx="191.89" cy="157.98" r="1.35"/><circle class="cls-6" cx="196.97" cy="168.14" r="1.35"/><circle class="cls-6" cx="196.74" cy="176.45" r="1.35"/><circle class="cls-6" cx="202.28" cy="187.76" r="1.35"/><circle class="cls-6" cx="213.36" cy="184.3" r="1.35"/><circle class="cls-7" cx="220.75" cy="172.06" r="1.35"/><circle class="cls-6" cx="226.52" cy="167.68" r="1.35"/><circle class="cls-6" cx="223.75" cy="161.67" r="1.35"/><circle class="cls-6" cx="231.6" cy="155.44" r="1.35"/><circle class="cls-7" cx="229.29" cy="137.44" r="1.35"/><circle class="cls-6" cx="240.14" cy="124.97" r="1.35"/><circle class="cls-6" cx="246.6" cy="110.43" r="1.35"/><circle class="cls-6" cx="236.67" cy="112.97" r="1.35"/><circle class="cls-6" cx="227.9" cy="103.73" r="1.35"/><circle class="cls-7" cx="212.2" cy="90.58" r="1.35"/><circle class="cls-6" cx="214.97" cy="78.8" r="1.35"/><circle class="cls-6" cx="204.82" cy="75.8" r="1.35"/><circle class="cls-6" cx="203.2" cy="80.42" r="1.35"/><circle class="cls-6" cx="189.81" cy="75.11" r="1.35"/><circle class="cls-6" cx="190.28" cy="68.18" r="1.35"/><circle class="cls-6" cx="174.35" cy="84.57" r="1.35"/><circle class="cls-6" cx="193.05" cy="87.58" r="1.35"/><circle class="cls-6" cx="167.88" cy="98.89" r="1.35"/><circle class="cls-6" cx="173.19" cy="113.2" r="1.35"/><circle class="cls-6" cx="186.12" cy="103.04" r="1.35"/><circle class="cls-6" cx="198.82" cy="109.27" r="1.35"/><circle class="cls-6" cx="215.67" cy="105.81" r="1.35"/><circle class="cls-7" cx="220.51" cy="113.89" r="1.35"/><circle class="cls-6" cx="205.97" cy="125.89" r="1.35"/><circle class="cls-6" cx="225.13" cy="129.36" r="1.35"/><circle class="cls-6" cx="220.75" cy="139.98" r="1.35"/><circle class="cls-6" cx="206.66" cy="150.36" r="1.35"/><circle class="cls-7" cx="214.74" cy="159.13" r="1.35"/><circle class="cls-6" cx="208.97" cy="173.22" r="1.35"/><circle class="cls-6" cx="235.75" cy="171.83" r="1.35"/><circle class="cls-6" cx="243.6" cy="150.36" r="1.35"/><circle class="cls-6" cx="241.75" cy="164.68" r="1.35"/><circle class="cls-6" cx="236.67" cy="157.06" r="1.35"/><path class="cls-8" d="M216.05,106l-.39,0-29.71-2.79L186,103l7-15.61Zm-29.75-3,29,2.72L193.09,87.77Z"/><path class="cls-8" d="M220.91,140.3l-15.14-14.1,0-.08,9.92-20.71Zm-14.85-14.16,14.52,13.52-5-33.44Z"/><path class="cls-8" d="M237,157.26l-30.5-6.8v-.09l-.76-24.5.21.21Zm-30.27-7,29.52,6.59L206,126.46Z"/><path class="cls-8" d="M173.21,113.37l-.1-.09L154,96l39.33-8.66ZM154.52,96.18,173.18,113l19.57-25.26Z"/><path class="cls-8" d="M185.91,103.81l3.47-29.18,3.79,13Zm3.57-28-3.15,26.46,6.59-14.71Z"/><path class="cls-8" d="M206.22,126,173,113.23l13.18-10.36.07.09Zm-32.78-12.87,32,12.3-19.3-22.26Z"/><path class="cls-8" d="M202.07,188.48l4.6-39.24L209,173.54v0Zm4.58-37L202.48,187l6.31-13.54Z"/><circle class="cls-8" cx="154.26" cy="96.12" r="1.35"/><circle class="cls-8" cx="202.28" cy="187.76" r="1.35"/><circle class="cls-7" cx="189.81" cy="75.11" r="1.35"/><circle class="cls-8" cx="193.05" cy="87.58" r="1.35"/><circle class="cls-7" cx="173.19" cy="113.2" r="1.35"/><circle class="cls-8" cx="186.12" cy="103.04" r="1.35"/><circle class="cls-8" cx="215.67" cy="105.81" r="1.35"/><circle class="cls-8" cx="205.97" cy="125.89" r="1.35"/><circle class="cls-8" cx="220.75" cy="139.98" r="1.35"/><circle class="cls-8" cx="206.66" cy="150.36" r="1.35"/><circle class="cls-7" cx="241.75" cy="164.68" r="1.35"/><circle class="cls-8" cx="236.67" cy="157.06" r="1.35"/><path class="cls-8" d="M181.45,58l-7.84-16.82,6,1.81v.08Zm-7.4-16.44,7,15-1.62-13.36Z"/><path class="cls-8" d="M195.25,63.89l-.64-9.66,5.88-12,.56.21Zm0-9.55.39,5.92,4-15Z"/><path class="cls-8" d="M191.21,32.76l0-.24,11.71-2.79h0l8.51,2.05ZM202.88,30l-10.41,2.48,17.27-.83Z"/><path class="cls-8" d="M227.67,41.07l-17.3-9.34L217.78,26ZM210.8,31.7,227,40.41l-9.23-14.1Z"/><path class="cls-8" d="M244.27,60.14l-9.09-5L227,39.55ZM235.37,55l7.91,4.32L228.2,41.4Z"/><path class="cls-8" d="M269.09,56.41,226.8,40.31l31.11,1.91,0,0ZM228.35,40.64l40,15.23L257.79,42.45Z"/><path class="cls-8" d="M200.6,42.07l10-10.5.08,0,17.11,9.23-.43,0Zm10-10.21-9.43,9.94,25.69-1.16Z"/><path class="cls-8" d="M233.24,76.08l-13-14.94.16-.06,15.05-6.18,0,.2ZM220.61,61.23l12.45,14.27,2.08-20.24Z"/><path class="cls-8" d="M243.54,59.75,235,55.08l23.05-12.9Zm-8-4.67,8,4.36L257.08,43Z"/><path class="cls-8" d="M260,70.11,243.17,59.52,269,56l-.14.22ZM243.85,59.67l16.08,10.12,8.56-13.49Z"/><path class="cls-8" d="M265.65,86.84l-.09-.26-5.74-16.67.06-.05,27.84-23.24-.3.55ZM260.11,70l5.59,16.26,21.21-38.64Z"/><path class="cls-8" d="M248.21,104.25,226.11,87.58l18.56,1.64,0,.08ZM226.92,87.9l20.91,15.77-3.36-14.22Z"/><path class="cls-8" d="M236.14,108.25,254,90.94l-5.85,13.12,0,0ZM253.24,92l-16.15,15.69,10.85-3.8Z"/><path class="cls-8" d="M264,87.68l35-31.82L291.8,74.42ZM297.47,58l-30.1,27.4,24-11.43Z"/><path class="cls-8" d="M313.93,75.17l13.72-10.92h.05l9.19,1.39ZM327.71,64.5l-12.3,9.79L336,65.76Z"/><path class="cls-8" d="M321.5,95.6l0-.12-7-21.08,20.93,16Zm-6.59-20.53,6.74,20.22,13.22-4.93Z"/><path class="cls-8" d="M302.65,100.38l0-.09L291.29,73.86l.35.24,30.21,21.39ZM291.84,74.54l10.95,25.56,18.5-4.71Z"/><path class="cls-8" d="M288.81,119.86l-6.41-4.46,0-.08,3.87-12.15.08.51Zm-6.13-4.55,5.81,4-2.27-15.13Z"/><path class="cls-8" d="M286.27,103.86,265.42,86.48l.23-.06L315,74.52l-.29.3ZM265.94,86.61l20.31,16.93,28-28.59Z"/><path class="cls-8" d="M321.63,95.77l-.16-.26L298,56.75l29.87,7.53,0,.11ZM298.46,57.13l23.05,38,6-30.65Z"/><path class="cls-8" d="M342.76,74.11l-15.62-9.94,9.37,1.42,0,0Zm-14.54-9.53,13.59,8.65-5.44-7.41Z"/><path class="cls-8" d="M317.82,127.48l-.13-.17L311,118.24l.11-.07,14.12-8.69-.14.34Zm-6.43-9.17,6.37,8.69,7-16.92Z"/><path class="cls-9" d="M181.28,58l-.11-.26-7.26-16.54,9,4.64v.06Zm-7-16.45,7,15.86L182.75,46Z"/><path class="cls-9" d="M201.13,42.31l-11.61-1.5v-.08l1.22-8,.11.1ZM189.7,40.67l11,1.42-9.8-9Z"/><path class="cls-9" d="M220.4,47.87l-9.79-16.31.06,0L217.81,26l0,.14ZM210.82,31.6l9.33,15.55-2.46-20.87Z"/><path class="cls-9" d="M200.7,42.29l10-10.81.05,0,16.84,9.29-.28,0Zm10-10.61-9.65,10.43L227,40.68Z"/><path class="cls-9" d="M235.16,55.28l-8.1-15,.09,0,14.49-4.56,0,.15Zm-7.87-14.89,7.83,14.49L241.39,36Z"/><path class="cls-9" d="M269,56.31,226.8,40.64l.52,0,30.84,1.59,0,0ZM227.83,40.85,268.5,56,258.07,42.41Z"/><path class="cls-9" d="M203.56,51.31l-.05-.15,24.18-10.67-7.38,7.1h0ZM226.93,41,204.32,51l15.92-3.54Z"/><path class="cls-9" d="M209.78,61.19l-.06-.1-6.3-9.92,17.05-3.79Zm-6.1-9.91,6.12,9.63,10.28-13.28Z"/><path class="cls-9" d="M195.12,62.78l5.76-20.86,2.75,9.33,0,0Zm5.77-20.28L195.51,62l8-10.77Z"/><path class="cls-9" d="M189.42,55.6l-6.69-9.69,7-5.32Zm-6.47-9.66,6.32,9.16.26-14.19Z"/><path class="cls-9" d="M165.36,67.08l10.28-9.29,6.19-.28-.28.16Zm10.34-9.14-9.11,8.23,14.59-8.48Z"/><path class="cls-9" d="M175.5,58l7.6-12.07,6.38,9.5-.12,0Zm7.6-11.78-7.27,11.56,13.38-2.47Z"/><path class="cls-9" d="M195.48,62.7l-6.22-7.33v0l.28-15.18Zm-6.06-7.38,5.73,6.75-5.47-20.75Z"/><path class="cls-9" d="M189.31,55.44l0-.05L183,46l.13,0,44.84-5.39-.6.23Zm-6.07-9.33,6.13,9.13L226.68,40.9Z"/><path class="cls-9" d="M227.48,40.86l-.19,0-36.84-7.9L217.79,26l0,0Zm-36.33-8,36,7.72-9.42-14.39Z"/><path class="cls-9" d="M233.21,75.72l-.12-.14L220.54,61.42l.1,0L235.24,55v.14ZM220.81,61.48l12.29,13.85,2-20.13Z"/><path class="cls-9" d="M266.27,88.12,234.66,55l23.67-13.14.07.41Zm-30.65-33,29.73,31.14L257.89,42.8Z"/><path class="cls-9" d="M291.6,74.59l-.09-.07-23-18.47h.24l29.58,1.07ZM269,56.23l22.56,18.1,6.56-17.05Z"/><path class="cls-9" d="M302.67,99.78l0-.06L291.38,74.24l.23.16,30.15,20.81ZM291.75,74.69l11,24.91,18.61-4.46Z"/><path class="cls-9" d="M321.41,95.31l.09-.17,15-30.07-1.08,25.39Zm14.93-29.51L321.73,95l13.57-4.7Z"/><path class="cls-9" d="M342.5,73.57,298.18,57.28l0-.15,38.27,8.24,0,0Zm-43.2-16,42.76,15.71-5.67-7.73Z"/><path class="cls-9" d="M265.86,87.51,241.31,35.57l27.51,20.53v0ZM241.73,36.09l24,50.83,2.89-30.73Z"/><path class="cls-9" d="M325.2,109.41l-.2-.09-22.35-9.58v0l-4.56-42.91Zm-22.4-9.77,22.06,9.45L298.33,57.62Z"/><path class="cls-9" d="M248,104.19l-3.54-15,.13,0,8.85,2.15,0,.09Zm-3.32-14.75L248,103.68l5.18-12.17Z"/><path class="cls-9" d="M244.74,89.42,192.3,87.8l.47-.14,40.41-12.23,0,0Zm-51.46-1.74,51.11,1.57L233.13,75.62Z"/><path class="cls-9" d="M206,126.33l-.27-.3L185.8,103.15l0,0,7-15.59.07.19Zm-20-23.21,19.61,22.49L192.78,88Z"/><path class="cls-9" d="M205.62,126.16l10.22-20.44h0l32.5-1.88-.33.17Zm10.32-20.29-10,19.92L247.66,104Z"/><path class="cls-9" d="M186.05,103.26l-.18,0L154.34,96l.18-.1,20.25-11.46Zm-31.28-7.32L185.72,103l-11-18.36Z"/><path class="cls-9" d="M174.81,84.88l-8.93-18.26,0,0,9.83-8.89v.19Zm-8.73-18.23,8.6,17.58.91-26.18Z"/><path class="cls-9" d="M236.32,157.45l-29.53-7v-.06l-1.07-24.64.15.15Zm-29.38-7.11,28.89,6.83-29.94-31Z"/><path class="cls-9" d="M202.34,188.32,192.71,87.75l.16,0,14.08,62.68h0ZM193,89l9.37,97.84,4.42-36.43Z"/><path class="cls-9" d="M258.1,42.42h0l-17.6-6.5.36,0L351,27.65l0,.16ZM241.22,36l16.9,6.24,91-14.3Z"/><path class="cls-6" d="M354.26,67.84l-3.53-17.23L360,56.8Zm-2.95-16.36,3.11,15.18,5.06-9.73Z"/><path class="cls-6" d="M359.78,72.89,354.16,67l-3.34-15.95.38-.11Zm-5.25-6,4.15,4.32-7-17.83Z"/><path class="cls-6" d="M348.38,80l-1.32-7.93,8.41-5.77Zm-.67-7.65,1,5.78,5.17-10Z"/><path class="cls-6" d="M359,73.41l.05-1.47L347,72.46l13-16.18-.52,15.24h.17Zm.55-16L347.82,72,359,71.53Z"/><path class="cls-6" d="M316.12,138.49l-.1-.21-8.83-17.88,15.11,13.83Zm-7.64-16.36,7.79,15.77,5.38-3.71Z"/><path class="cls-6" d="M324.53,141.32l-8.55-3,1.92-12.19Zm-8.11-3.26,7.38,2.58-5.72-13.09Z"/><path class="cls-6" d="M329.44,135.05l-.08-.16-3.83-7.45,11.73,4.78Zm-3.06-6.83,3.26,6.34,6.52-2.35Z"/><path class="cls-6" d="M329.72,134.89l-.37-.15,10.16-27.88.38.11-2.59,11.35ZM338.8,110l-7.37,20.23,5.5-12Z"/><path class="cls-6" d="M349.15,110.67l-9.89-3,1.93-8.38Zm-9.42-3.28,8.43,2.57-6.78-9.71Z"/><path class="cls-6" d="M346.9,120.54l-6.12-21.86,8.09,11.59Zm-5.1-19.71,5,18,1.62-8.45Z"/><path class="cls-6" d="M345.38,137.7l-9.13-5.52,12.32-4.67Zm-8.22-5.44,8,4.84,2.79-8.93Z"/><path class="cls-6" d="M336.9,132.53l-11.52-5.45,11.94-9.22ZM326.13,127l10.38,4.91.38-13.22Z"/><path class="cls-6" d="M342.91,147.07l-21.47-6.62L351.36,143Zm-16-5.57,16,4.93,6.29-3.06Z"/><path class="cls-6" d="M368.88,144.38l-21.6-17.07,14.26,4.54,0,.07Zm-19.64-16,18.23,14.4-6.2-10.57Z"/><path class="cls-6" d="M380.62,146.51l-21.47-16.27,19.44,8.14Zm-17.36-13.9L379.62,145l-1.55-6.2Z"/><path class="cls-6" d="M380.39,146l-12.85-2.36,10.92-5.35Zm-11.59-2.53,11.05,2-1.66-6.63Z"/><path class="cls-6" d="M368.19,175.3l-1.82-15.22,4.54-13.18Zm-1.41-15.18,1.37,11.46,2.05-21.38Z"/><path class="cls-6" d="M367.91,174.09l2.53-26.32,6.53,15Zm2.78-24.76-2.25,23.46,8.07-10.13Z"/><path class="cls-6" d="M381.63,174.39l-15.76-14.68,11,2.81Zm-14.35-13.91,13.32,12.4-4-10Z"/><path class="cls-6" d="M356.64,165.29l3.87-9.68,6.45,4.52Zm4.06-9.07-3.3,8.24,8.79-4.39Z"/><path class="cls-6" d="M360.73,156.31l-7.57-7.14,9.09-.43Zm-6.62-6.79,6.37,6,1.27-6.37Z"/><path class="cls-6" d="M357.61,166.19l-8.54-11.68,4.72-5.84Zm-7.78-11.66,6.6,9-3-13.54Z"/><path class="cls-6" d="M345.55,171.36,339,160.83l10.74-6.74Zm-6-10.4,5.82,9.39,3.75-15.39Z"/><path class="cls-6" d="M350.46,182.52l-5.25-11.76,12.18-6.3Zm-4.73-11.58,4.71,10.54,6.21-16.19Z"/><path class="cls-6" d="M353.35,190l3.52-25.47,11.6,8.9Zm3.82-24.74-3.25,23.52,14-15.3Z"/><path class="cls-6" d="M372.49,188.67l-4.59-15.44,13.56.21Zm-4.05-15,4.17,14,8.16-13.85Z"/><path class="cls-6" d="M362.8,194.58l-9.87-5.36,20.39-1.29Zm-8.47-5.05,8.45,4.59,9-5.69Z"/><path class="cls-6" d="M353.57,189.73l-3.38-7.83.17-.08,18.65-9Zm-2.87-7.63,3,6.91,13.63-14.94Z"/><path class="cls-6" d="M331.81,175.68l-4-10.74,17.68,6.32Zm-3.33-10.07,3.57,9.58,12.21-3.94Z"/><path class="cls-6" d="M338.47,186.78l-10.6-21.61.2-.08,11.44-4.49v.3Zm-10-21.4,9.71,19.81,1-24Z"/><path class="cls-6" d="M326.72,186.43l1.44-20.83,17.12,5.57Zm1.81-20.29-1.34,19.4,17.28-14.21Z"/><path class="cls-6" d="M338.18,185.73l-7.83-11.09,21.1,7.39Zm-6.26-9.91,6.51,9.22,11-3.07Z"/><path class="cls-6" d="M326.1,186.3l19.66-16.16-7.86,15.94ZM344,172.36,327.8,185.67l9.71-.18Z"/><path class="cls-6" d="M359.2,202.23l3.44-8,.05,0,11.17-7.07Zm3.75-7.75-2.54,5.92,10.83-11.17Z"/><path class="cls-6" d="M381.38,207.81,401,186.88l5.28,5.92-.21.12ZM401,187.47,383.64,206l22.06-13.27Z"/><path class="cls-6" d="M397.29,200.28l3.64-13.51,5.36,6Zm3.84-12.7L398,199.17l7.72-6.43Z"/><circle class="cls-8" cx="329.7" cy="134.76" r="1.35"/><circle class="cls-8" cx="336.89" cy="118.37" r="1.35"/><circle class="cls-8" cx="307.49" cy="121.09" r="1.35"/><circle class="cls-8" cx="323.95" cy="140.81" r="1.35"/><circle class="cls-8" cx="345.23" cy="137.4" r="1.35"/><circle class="cls-8" cx="372.12" cy="188.16" r="1.35"/><circle class="cls-8" cx="376.46" cy="162.53" r="1.35"/><circle class="cls-8" cx="368.23" cy="173.24" r="1.35"/><circle class="cls-8" cx="345.23" cy="170.94" r="1.35"/><circle class="cls-8" cx="382.71" cy="206.75" r="1.35"/><circle class="cls-8" cx="348.4" cy="78.65" r="1.35"/><circle class="cls-8" cx="359.21" cy="72.01" r="1.35"/><circle class="cls-8" cx="350.98" cy="51.04" r="1.35"/><path class="cls-8" d="M348.26,78.88l0-.24,2.62-28.11,8.45,21.53-.08.05ZM351,51.55l-2.51,26.88L359.06,72Z"/><path class="cls-8" d="M318,127.8l-11.08-5.86,3.93-4.25Zm-10.69-5.92,9.92,5.25-6.4-9.05Z"/><path class="cls-8" d="M345.43,137.55l-.22,0-15.68-2.67,7.36-16.78.11.25Zm-15.56-2.89L345,137.24l-8.14-18.58Z"/><path class="cls-8" d="M323.91,141l-6.19-14.72.34.23,11.83,8.19-.1.1ZM318.26,127,324,140.6l5.52-5.82Z"/><path class="cls-8" d="M345.46,137.61l-27.78-11,.26-.11,19-8.32,0,.11Zm-27.16-11L345,137.18l-8.18-18.66Z"/><path class="cls-8" d="M372.16,189.65l-4.26-17.83,9-10.27ZM368.56,172l3.51,14.69L376,163.52Z"/><path class="cls-8" d="M372.31,188.42l-.26-.16-27.31-17.48.5,0,23,2.3,0,.08Zm-26.59-17.31,26.21,16.78-3.84-14.54Z"/><path class="cls-8" d="M368.23,173.36h-.07L344.57,171l.63-.17,31.58-8.51Zm-22.33-2.47,22.23,2.22,8-10.38Z"/><circle class="cls-8" cx="166.02" cy="66.7" r="1.35"/><circle class="cls-8" cx="181.38" cy="57.47" r="1.35"/><circle class="cls-8" cx="195.43" cy="62.08" r="1.35"/><circle class="cls-8" cx="182.97" cy="46.05" r="1.35"/><circle class="cls-8" cx="173.94" cy="41.27" r="1.35"/><circle class="cls-8" cx="179.52" cy="43.13" r="1.35"/><circle class="cls-8" cx="200.76" cy="42.34" r="1.35"/><circle class="cls-8" cx="203.68" cy="51.36" r="1.35"/><circle class="cls-8" cx="194.92" cy="54.28" r="1.35"/><circle class="cls-8" cx="220.41" cy="61.19" r="1.35"/><circle class="cls-8" cx="210.58" cy="31.71" r="1.35"/><circle class="cls-8" cx="202.88" cy="29.86" r="1.35"/><circle class="cls-8" cx="190.93" cy="33.04" r="1.35"/><circle class="cls-8" cx="217.75" cy="26.14" r="1.35"/><circle class="cls-8" cx="227.31" cy="40.74" r="1.35"/><circle class="cls-8" cx="235.28" cy="55.08" r="1.35"/><circle class="cls-8" cx="243.51" cy="59.59" r="1.35"/><circle class="cls-8" cx="265.81" cy="86.94" r="1.35"/><circle class="cls-8" cx="259.71" cy="69.95" r="1.35"/><circle class="cls-8" cx="268.73" cy="56.14" r="1.35"/><circle class="cls-8" cx="257.85" cy="42.34" r="1.35"/><circle class="cls-8" cx="336.44" cy="65.7" r="1.35"/><circle class="cls-8" cx="342.28" cy="73.67" r="1.35"/><circle class="cls-8" cx="327.68" cy="64.37" r="1.35"/><circle class="cls-8" cx="335.11" cy="90.4" r="1.35"/><circle class="cls-8" cx="321.57" cy="95.44" r="1.35"/><circle class="cls-8" cx="325.02" cy="109.78" r="1.35"/><circle class="cls-8" cx="317.86" cy="126.77" r="1.35"/><circle class="cls-8" cx="311.22" cy="118.28" r="1.35"/><circle class="cls-8" cx="302.72" cy="100.24" r="1.35"/><circle class="cls-8" cx="286.26" cy="103.69" r="1.35"/><circle class="cls-8" cx="282.54" cy="115.35" r="1.35"/><circle class="cls-8" cx="288.65" cy="119.6" r="1.35"/><circle class="cls-8" cx="253.6" cy="91.46" r="1.35"/><circle class="cls-8" cx="248.02" cy="103.96" r="1.35"/><circle class="cls-8" cx="236.6" cy="108.21" r="1.35"/><circle class="cls-8" cx="226.51" cy="87.74" r="1.35"/><circle class="cls-8" cx="221.2" cy="82.43" r="1.35"/><circle class="cls-8" cx="232.89" cy="75.53" r="1.35"/><circle class="cls-8" cx="244.57" cy="89.33" r="1.35"/><circle class="cls-8" cx="291.57" cy="74.2" r="1.35"/><circle class="cls-7" cx="314.67" cy="74.73" r="1.35"/><circle class="cls-8" cx="298.21" cy="56.94" r="1.35"/><circle class="cls-8" cx="287.32" cy="47.11" r="1.35"/><path class="cls-9" d="M317.89,127,311,118.24l14.24-8.9Zm-6.49-8.7,6.43,8.23,6.95-16.59Z"/><path class="cls-9" d="M345.19,137.51l-27.56-10.78-6.86-8.85.51.29,34,19.12Zm-27.41-11,25.91,10.13-32-18Z"/><path class="cls-9" d="M310.95,118.59l.16-.36,10.5-23.29,3.55,14.76-.07,0Zm10.59-22.91L311.49,118l13.4-8.38Z"/><path class="cls-9" d="M372.35,188.77l-.26-.17-27.33-17.83.49,0,23.08,2.31Zm-26.64-17.66L372,188.24l-3.82-14.88Z"/><circle class="cls-6" cx="325.82" cy="127.46" r="1.35"/><circle class="cls-6" cx="329.7" cy="134.76" r="1.35"/><circle class="cls-6" cx="336.69" cy="132.12" r="1.35"/><circle class="cls-6" cx="336.89" cy="118.37" r="1.35"/><circle class="cls-7" cx="341.04" cy="99.34" r="1.35"/><circle class="cls-6" cx="339.64" cy="106.95" r="1.35"/><circle class="cls-7" cx="346.78" cy="119.85" r="1.35"/><circle class="cls-6" cx="348.49" cy="110.53" r="1.35"/><circle class="cls-6" cx="321.93" cy="134.13" r="1.35"/><circle class="cls-6" cx="307.49" cy="121.09" r="1.35"/><circle class="cls-6" cx="316.34" cy="137.55" r="1.35"/><circle class="cls-6" cx="323.95" cy="140.81" r="1.35"/><circle class="cls-6" cx="342.75" cy="146.56" r="1.35"/><circle class="cls-6" cx="350.05" cy="143.3" r="1.35"/><circle class="cls-6" cx="345.23" cy="137.4" r="1.35"/><circle class="cls-6" cx="348.03" cy="127.92" r="1.35"/><circle class="cls-6" cx="361.23" cy="131.8" r="1.35"/><circle class="cls-6" cx="378.47" cy="138.79" r="1.35"/><circle class="cls-6" cx="379.71" cy="145.78" r="1.35"/><circle class="cls-7" cx="367.91" cy="143.61" r="1.35"/><circle class="cls-6" cx="370.86" cy="148.58" r="1.35"/><circle class="cls-6" cx="366.35" cy="160.07" r="1.35"/><circle class="cls-6" cx="360.45" cy="155.88" r="1.35"/><circle class="cls-6" cx="361.97" cy="149.08" r="1.35"/><circle class="cls-6" cx="353.74" cy="149.24" r="1.35"/><circle class="cls-7" cx="349.27" cy="154.79" r="1.35"/><circle class="cls-6" cx="339.33" cy="161" r="1.35"/><circle class="cls-6" cx="328.61" cy="165.66" r="1.35"/><circle class="cls-6" cx="327.37" cy="185.85" r="1.35"/><circle class="cls-6" cx="338.4" cy="185.7" r="1.35"/><circle class="cls-7" cx="350.67" cy="182.13" r="1.35"/><circle class="cls-6" cx="353.77" cy="189.27" r="1.35"/><circle class="cls-6" cx="362.8" cy="194.37" r="1.35"/><circle class="cls-6" cx="372.12" cy="188.16" r="1.35"/><circle class="cls-6" cx="381.28" cy="173.87" r="1.35"/><circle class="cls-6" cx="376.46" cy="162.53" r="1.35"/><circle class="cls-6" cx="368.23" cy="173.24" r="1.35"/><circle class="cls-6" cx="357.19" cy="164.89" r="1.35"/><circle class="cls-6" cx="345.23" cy="170.94" r="1.35"/><circle class="cls-7" cx="331.56" cy="175.29" r="1.35"/><circle class="cls-6" cx="359.68" cy="200.92" r="1.35"/><circle class="cls-6" cx="382.71" cy="206.75" r="1.35"/><circle class="cls-7" cx="397.62" cy="199.29" r="1.35"/><circle class="cls-6" cx="405.7" cy="192.92" r="1.35"/><circle class="cls-6" cx="400.93" cy="187.56" r="1.35"/><circle class="cls-6" cx="348.4" cy="78.65" r="1.35"/><circle class="cls-7" cx="359.21" cy="72.01" r="1.35"/><circle class="cls-6" cx="359.68" cy="56.94" r="1.35"/><circle class="cls-6" cx="350.98" cy="51.04" r="1.35"/><circle class="cls-6" cx="354.55" cy="67.04" r="1.35"/><circle class="cls-6" cx="347.41" cy="72.47" r="1.35"/><circle class="cls-9" cx="317.86" cy="126.77" r="1.35"/><circle class="cls-9" cx="311.22" cy="118.28" r="1.35"/><circle class="cls-9" cx="345.23" cy="137.4" r="1.35"/><circle class="cls-9" cx="372.12" cy="188.16" r="1.35"/><circle class="cls-9" cx="368.23" cy="173.24" r="2.18"/><circle class="cls-9" cx="345.23" cy="170.94" r="1.35"/><circle class="cls-9" cx="350.78" cy="27.47" r="1.35"/><circle class="cls-9" cx="154.26" cy="96.12" r="1.35"/><circle class="cls-9" cx="202.28" cy="187.76" r="1.72"/><circle class="cls-9" cx="193.05" cy="87.58" r="1.35"/><circle class="cls-9" cx="186.12" cy="103.04" r="1.35"/><circle class="cls-9" cx="215.67" cy="105.81" r="1.35"/><circle class="cls-9" cx="205.97" cy="125.89" r="1.9"/><circle class="cls-9" cx="236.67" cy="157.06" r="1.35"/><circle class="cls-9" cx="166.02" cy="66.7" r="2.07"/><circle class="cls-9" cx="181.38" cy="57.47" r="1.85"/><circle class="cls-9" cx="195.43" cy="62.08" r="1.35"/><circle class="cls-9" cx="182.97" cy="46.05" r="1.35"/><circle class="cls-9" cx="200.76" cy="42.34" r="1.35"/><circle class="cls-9" cx="203.68" cy="51.36" r="1.91"/><circle class="cls-9" cx="220.41" cy="61.19" r="1.74"/><circle class="cls-9" cx="210.58" cy="31.71" r="1.35"/><circle class="cls-9" cx="190.93" cy="33.04" r="1.35"/><circle class="cls-9" cx="217.75" cy="26.14" r="1.35"/><circle class="cls-9" cx="227.31" cy="40.74" r="2.39"/><circle class="cls-9" cx="265.81" cy="86.94" r="1.35"/><circle class="cls-9" cx="257.85" cy="42.34" r="1.35"/><circle class="cls-9" cx="335.11" cy="90.4" r="1.35"/><circle class="cls-9" cx="321.57" cy="95.44" r="1.35"/><circle class="cls-9" cx="302.72" cy="100.24" r="1.8"/><circle class="cls-9" cx="220.23" cy="47.47" r="0.94"/><circle class="cls-9" cx="189.4" cy="55.26" r="0.94"/><circle class="cls-9" cx="174.1" cy="41.36" r="1.99"/><circle class="cls-9" cx="175.8" cy="58" r="0.94"/><circle class="cls-9" cx="189.61" cy="40.74" r="0.94"/><circle class="cls-9" cx="209.92" cy="61.19" r="0.94"/><circle class="cls-9" cx="235.28" cy="55.08" r="0.94"/><circle class="cls-9" cx="233.18" cy="75.6" r="0.94"/><circle class="cls-9" cx="174.59" cy="84.53" r="0.94"/><circle class="cls-9" cx="244.57" cy="89.33" r="0.94"/><circle class="cls-9" cx="206.73" cy="150.59" r="0.94"/><circle class="cls-9" cx="241.38" cy="35.96" r="0.74"/><circle class="cls-9" cx="268.73" cy="56.14" r="0.74"/><circle class="cls-9" cx="298.21" cy="56.94" r="0.74"/><circle class="cls-9" cx="336.44" cy="65.7" r="0.74"/><circle class="cls-9" cx="342.28" cy="73.67" r="0.74"/><circle class="cls-9" cx="325.16" cy="109.51" r="0.74"/><circle class="cls-9" cx="291.7" cy="74.46" r="0.74"/><circle class="cls-9" cx="253.66" cy="91.45" r="0.74"/><circle class="cls-9" cx="248.02" cy="103.96" r="0.74"/></g></g></svg>